<?xml version="1.0" standalone="no"?><!DOCTYPE svg PUBLIC "-//W3C//DTD SVG 1.1//EN" "http://www.w3.org/Graphics/SVG/1.1/DTD/svg11.dtd"><svg t="1711723627101" class="icon" viewBox="0 0 1025 1024" version="1.1" xmlns="http://www.w3.org/2000/svg" p-id="4264" xmlns:xlink="http://www.w3.org/1999/xlink" width="200.1953125" height="200"><path d="M173.409874 346.819747a22.925373 22.925373 0 0 1 0-45.850746h526.695752a22.925373 22.925373 0 0 1 0 45.850746z" fill="#ED3E3E" p-id="4265"></path><path d="M60.546498 1024A60.605281 60.605281 0 0 1 0 963.453502V135.788749a60.605281 60.605281 0 0 1 60.546498-60.546499h165.180253V22.925373a22.925373 22.925373 0 1 1 45.850746 0V173.409874a22.925373 22.925373 0 0 1-45.850746 0V121.092997H45.850746v857.056257h199.641791a22.925373 22.925373 0 1 1 0 45.850746z m790.043628-601.938002a22.954765 22.954765 0 0 1-22.925373-22.925373V121.092997H647.788749V173.409874a22.925373 22.925373 0 1 1-45.850747 0V22.925373a22.925373 22.925373 0 1 1 45.850747 0v52.316877h165.180252a60.605281 60.605281 0 0 1 60.546498 60.546499v263.347876a22.954765 22.954765 0 0 1-22.925373 22.925373z" fill="#ED3E3E" p-id="4266"></path><path d="M173.409874 798.273249a22.925373 22.925373 0 0 1 0-45.850746h150.4845a22.925373 22.925373 0 1 1 0 45.850746z m0-225.726751a22.925373 22.925373 0 0 1 0-45.850746h300.969001a22.925373 22.925373 0 1 1 0 45.850746zM354.167623 121.092997V75.24225h165.180253v45.850747zM700.105626 932.298507c-16.929506 0-22.925373-5.995867-22.925373-22.925373v-134.025258c0-16.929506 5.995867-22.925373 22.925373-22.925373s22.925373 5.995867 22.925373 22.925373v134.025258c0 16.929506-5.995867 22.925373-22.925373 22.925373z" fill="#ED3E3E" p-id="4267"></path><path d="M812.969001 1024v-45.850746h156.759587L700.943284 536.394948l-268.932262 441.754306H587.24225v45.850746H409.585304a33.300574 33.300574 0 0 1-29.920551-47.937543l291.240413-478.434902 0.264524-0.529048a33.300574 33.300574 0 0 1 59.459013 0l0.264523 0.514352 291.240413 478.434902a33.300574 33.300574 0 0 1-29.876463 47.952239z" fill="#ED3E3E" p-id="4268"></path><path d="M677.180253 978.149254H723.030999v45.850746h-45.850746z" fill="#ED3E3E" p-id="4269"></path></svg>