<?xml version="1.0" standalone="no"?><!DOCTYPE svg PUBLIC "-//W3C//DTD SVG 1.1//EN" "http://www.w3.org/Graphics/SVG/1.1/DTD/svg11.dtd"><svg t="1763021814150" class="icon" viewBox="0 0 1024 1024" version="1.1" xmlns="http://www.w3.org/2000/svg" p-id="4813" xmlns:xlink="http://www.w3.org/1999/xlink" width="200" height="200"><path d="M610.368 263.872a32 32 0 0 1 45.248 0l135.808 135.744a32 32 0 0 1 0 45.248l-271.552 271.552a32 32 0 0 1-45.248 0L338.816 580.672a32 32 0 0 1 0-45.248l271.552-271.552z m22.656 67.84L406.72 558.08l90.496 90.496 226.304-226.24L632.96 331.776zM723.392 558.016a32 32 0 0 1 45.248 0l180.992 180.992a32 32 0 0 1 0 45.248l-135.744 135.808a32 32 0 0 1-45.248 0L587.52 739.008a32 32 0 0 1 0-45.248l135.808-135.744z m22.592 67.84l-90.496 90.56 135.744 135.68 90.56-90.432-135.808-135.808zM270.848 105.536a32 32 0 0 1 45.248 0l181.056 180.992a32 32 0 0 1 0 45.248L361.344 467.52a32 32 0 0 1-45.248 0L135.104 286.528a32 32 0 0 1 0-45.248l135.744-135.744z m22.656 67.84L203.008 263.872l135.68 135.808L429.312 309.12 293.504 173.376zM225.6 648.64a32 32 0 0 1 45.248 0l135.808 135.744a32 32 0 0 1-45.248 45.248l-135.808-135.744a32 32 0 0 1 0-45.248zM112.384 716.48a32 32 0 0 1 45.248 0l180.992 181.056a32 32 0 1 1-45.248 45.248l-180.992-181.056a32 32 0 0 1 0-45.248z" p-id="4814" fill="#707070"></path></svg>