<?xml version="1.0" standalone="no"?><!DOCTYPE svg PUBLIC "-//W3C//DTD SVG 1.1//EN" "http://www.w3.org/Graphics/SVG/1.1/DTD/svg11.dtd"><svg t="1763021864839" class="icon" viewBox="0 0 1024 1024" version="1.1" xmlns="http://www.w3.org/2000/svg" p-id="5965" xmlns:xlink="http://www.w3.org/1999/xlink" width="200" height="200"><path d="M512 943.98c223.99-224.73 335.984-399.578 335.984-524.547C847.984 231.98 697.56 80.02 512 80.02S176.016 231.98 176.016 419.433C176.016 544.4 288.01 719.25 512 943.98z m45.327 45.177c-25.01 25.093-65.645 25.093-90.654 0-235.25-236.027-354.654-422.443-354.654-569.724C112.02 196.78 290.951 16.024 512 16.024s399.98 180.757 399.98 403.409c0 147.281-119.403 333.697-354.653 569.724zM512 544c70.689 0 127.994-57.305 127.994-127.994S582.69 288.01 512 288.01s-127.994 57.305-127.994 127.994S441.31 543.999 512 543.999z m0 63.996c-106.034 0-191.99-85.956-191.99-191.99S405.965 224.014 512 224.014s191.99 85.957 191.99 191.99S618.034 607.996 512 607.996z" p-id="5966" fill="#707070"></path></svg>