<?xml version="1.0" standalone="no"?><!DOCTYPE svg PUBLIC "-//W3C//DTD SVG 1.1//EN" "http://www.w3.org/Graphics/SVG/1.1/DTD/svg11.dtd"><svg t="1706010195919" class="icon" viewBox="0 0 1024 1024" version="1.1" xmlns="http://www.w3.org/2000/svg" p-id="13468" xmlns:xlink="http://www.w3.org/1999/xlink" width="200" height="200"><path d="M862.7 218.8c-72.2-72.2-189.4-72.2-261.6 0l-31.8 31.8-261.7 261.6-28.3 28.3c-46.9 46.9-46.9 122.8 0 169.7 46.9 46.9 122.8 46.9 169.7 0l282.8-282.8c3.9-3.9 3.9-10.2 0-14.1l-35.4-35.4c-3.9-3.9-10.2-3.9-14.1 0L399.5 660.7c-19.5 19.5-51.2 19.5-70.7 0s-19.5-51.2 0-70.7l28.3-28.3 261.6-261.6 31.8-31.8c44.9-44.9 117.7-44.9 162.6 0 44.9 44.9 44.9 117.7 0 162.6l-10.6 10.6-282.7 282.8-35.4 35.4c-70.3 70.3-184.3 70.3-254.6 0-70.3-70.3-70.3-184.3 0-254.6L541 194c3.9-3.9 3.9-10.2 0-14.1l-35.4-35.4c-3.9-3.9-10.2-3.9-14.1 0L180.3 455.6c-97.6 97.6-97.6 255.9 0 353.6 97.6 97.6 255.9 97.6 353.6 0l35.4-35.4L852.1 491l10.6-10.6c72.2-72.3 72.2-189.4 0-261.6z" p-id="13469" fill="#515151"></path></svg>