<?xml version="1.0" standalone="no"?><!DOCTYPE svg PUBLIC "-//W3C//DTD SVG 1.1//EN" "http://www.w3.org/Graphics/SVG/1.1/DTD/svg11.dtd"><svg t="1711500455251" class="icon" viewBox="0 0 1024 1024" version="1.1" xmlns="http://www.w3.org/2000/svg" p-id="6301" xmlns:xlink="http://www.w3.org/1999/xlink" width="200" height="200"><path d="M872.802928 755.99406 872.864326 755.99406 872.864326 755.624646Z" fill="#515151" p-id="6302"></path><path d="M349.405343 154.62259 155.596266 154.62259c-29.150924 0-52.873208 23.724331-52.873208 52.845579l0 193.823404c0 29.150924 23.722284 52.844555 52.873208 52.844555l193.810101 0c29.136597 0 52.859905-23.693632 52.859905-52.844555L402.266271 207.467145C402.265248 178.345897 378.541941 154.62259 349.405343 154.62259M351.851045 207.467145l0 193.823404c0 1.339508-1.106194 2.474354-2.445702 2.474354L155.596266 403.764903c-1.338485 0-2.503007-1.134847-2.503007-2.474354L153.093259 207.467145c0-1.38351 1.134847-2.474354 2.503007-2.474354l193.810101 0C350.774527 204.992791 351.851045 206.084659 351.851045 207.467145" fill="#515151" p-id="6303"></path><path d="M349.405343 569.837266 155.596266 569.837266c-29.150924 0-52.873208 23.75196-52.873208 52.856835L102.723058 816.519552c0 29.164227 23.722284 52.857858 52.873208 52.857858l193.810101 0c29.136597 0 52.859905-23.693632 52.859905-52.857858L402.266271 622.694101C402.265248 593.589227 378.541941 569.837266 349.405343 569.837266M351.851045 622.694101 351.851045 816.519552c0 1.36816-1.106194 2.472308-2.445702 2.472308L155.596266 818.99186c-1.338485 0-2.503007-1.104147-2.503007-2.472308L153.093259 622.694101c0-1.367137 1.134847-2.474354 2.503007-2.474354l193.810101 0C350.774527 620.219747 351.851045 621.326964 351.851045 622.694101" fill="#515151" p-id="6304"></path><path d="M519.857457 224.930889c0.727571 0.480954 1.601474 0.801249 2.532683 0.801249l1.77646 0c0.434905 0.058328 0.900509 0.058328 1.36816 0l367.768061 0c0.233314 0.029676 0.493234 0.058328 0.697895 0.058328 0.233314 0 0.466628-0.028653 0.670266-0.058328l1.454118 0c0.787946 0 1.514493-0.261966 2.124384-0.626263 12.023848-2.081405 20.900006-12.341073 20.900006-24.464181 0-11.949146-8.586562-22.064528-20.345374-24.348548-0.756223-0.566912-1.687432-0.931209-2.679016-0.931209L522.389116 175.361937c-0.901533 0-1.775436 0.422625-2.501984 1.019213-11.614525 2.357697-20.200064 12.458753-20.200064 24.261567C499.687068 212.474183 508.272607 222.574215 519.857457 224.930889" fill="#515151" p-id="6305"></path><path d="M519.507486 411.493935c0.756223 0.683569 1.77646 1.134847 2.88163 1.134847l373.73496 0c0.903579 0 1.719154-0.39295 2.446725-0.932232 11.818163-2.196015 20.550035-12.369725 20.550035-24.405853 0-12.123109-8.847505-22.354124-20.784372-24.434505-0.668219-0.39295-1.425466-0.596588-2.212388-0.596588l-0.697895 0.115634c-0.581238-0.145309-1.456165-0.203638-2.297322-0.115634l-366.867552 0.115634c-0.611937-0.145309-1.457188-0.203638-2.300392-0.115634l-1.571798 0c-0.814552 0-1.542122 0.233314-2.213411 0.714268-11.786441 2.241041-20.459984 12.398378-20.459984 24.317848C499.715721 398.976854 508.040317 408.990928 519.507486 411.493935" fill="#515151" p-id="6306"></path><path d="M519.537162 660.680251c0.756223 0.667196 1.775436 1.075495 2.851954 1.075495l373.73496 0c0.408299 0 0.787946-0.058328 1.196245-0.174985 13.271258-0.608867 23.954575-11.641131 23.954575-25.118074 0-13.827937-11.294231-25.118074-25.15082-25.118074-0.202615 0-0.435928 0.027629-0.697895 0.058328L525.50406 611.402941c-0.437975-0.058328-0.873903-0.058328-1.36816 0l-1.746784 0c-0.842181 0-1.600451 0.25992-2.270716 0.725524-11.729136 2.270716-20.402679 12.428054-20.402679 24.334221C499.715721 648.166239 508.097622 658.176221 519.537162 660.680251" fill="#515151" p-id="6307"></path><path d="M897.755226 777.807878c-0.493234-0.203638-1.077541-0.319272-1.63115-0.319272L522.389116 777.488607c-0.959861 0-1.893116 0.462534-2.589988 1.1328-11.583826 2.416026-20.083407 12.485359-20.083407 24.275893 0 11.904121 8.674567 22.064528 20.402679 24.334221 0.669242 0.405229 1.428535 0.60989 2.270716 0.60989l0.728594-0.115634c0.290619 0.057305 0.726547 0.202615 2.620687 0.115634l368.639918-0.115634c0.466628 0.115634 1.340531 0.290619 1.74576 0.290619 13.856589 0 25.15082-11.291161 25.15082-25.119097C921.274896 789.565666 910.883221 778.679735 897.755226 777.807878" fill="#515151" p-id="6308"></path></svg>