<?xml version="1.0" standalone="no"?><!DOCTYPE svg PUBLIC "-//W3C//DTD SVG 1.1//EN" "http://www.w3.org/Graphics/SVG/1.1/DTD/svg11.dtd"><svg t="1706059589872" class="icon" viewBox="0 0 1158 1024" version="1.1" xmlns="http://www.w3.org/2000/svg" p-id="23975" xmlns:xlink="http://www.w3.org/1999/xlink" width="226.171875" height="200"><path d="M622.153964 911.388683H112.008417V374.120951h716.564017V393.375632a343.271638 343.271638 0 0 1 79.089123-9.523821c10.973098 0 21.946196 0 32.712255 1.656317v-190.476421a67.287866 67.287866 0 0 0-67.080827-67.287867h-89.648142v73.292015a89.234063 89.234063 0 0 1-43.064234 77.639845 102.277557 102.277557 0 0 1-158.385286-84.886231V127.74384h-201.449519v68.323065a96.480448 96.480448 0 0 1-55.48661 88.819983 101.449398 101.449398 0 0 1-144.927712-90.68334V127.74384H67.287866A67.494906 67.494906 0 0 0 0 195.031707v761.284567a67.287866 67.287866 0 0 0 67.287866 67.080827h676.191297a339.751965 339.751965 0 0 1-120.497041-112.008418z m-65.010431-377.640209a97.722686 97.722686 0 0 0-79.917281-34.161533 116.770328 116.770328 0 0 0-91.304459 38.302324 90.269261 90.269261 0 0 0-22.567315-21.739156 98.550844 98.550844 0 0 0-56.314768-16.563168 122.360397 122.360397 0 0 0-74.120173 21.946197v-15.735009H155.90081v285.300553h77.225767v-160.041602a66.459708 66.459708 0 0 1 15.11389-46.169828 46.376868 46.376868 0 0 1 36.853047-16.149088c23.188434 0 46.790947 6.625267 46.790947 56.314768v165.631671h76.190568v-160.041602a65.010431 65.010431 0 0 1 15.942049-43.478314 45.54871 45.54871 0 0 1 36.231928-17.391325c23.395474 0 47.205026 7.246386 47.205026 60.869639v161.490879h65.42451a346.791311 346.791311 0 0 1-6.418227-66.045629 342.650519 342.650519 0 0 1 17.184285-106.832427 136.02501 136.02501 0 0 0-26.501067-85.50735z m124.223753-283.644237h5.38303a53.416214 53.416214 0 0 0 53.416213-53.209174V53.416628A53.623253 53.623253 0 0 0 686.750316 0.000414h-5.38303a53.416214 53.416214 0 0 0-53.209174 53.416214v143.478435a53.209174 53.209174 0 0 0 53.209174 53.209174z m-404.555356 0h5.383029a53.209174 53.209174 0 0 0 53.209175-53.209174V53.416628A53.416214 53.416214 0 0 0 281.78088 0.000414h-5.383029a53.416214 53.416214 0 0 0-53.209174 53.416214v143.478435a53.209174 53.209174 0 0 0 53.209174 53.209174z m836.439938 353.830657a269.151465 269.151465 0 0 0-213.250776-124.223753v-16.770207c8.281584-1.035198 18.840603 0 22.774355-3.933752s3.105594-14.90685 3.933752-22.774355-3.519673-9.9379-9.937901-9.9379h-58.592203a8.281584 8.281584 0 0 0-9.523821 9.316782v16.977246c0 5.797108 3.519673 9.109742 9.523821 9.109742h13.871652v19.254681a271.221861 271.221861 0 0 0-255.486852 301.449642 271.221861 271.221861 0 0 0 538.30293 7.246385 259.834684 259.834684 0 0 0-41.407917-186.33563z m-227.743547 340.166044a192.132738 192.132738 0 1 1 192.546817-191.30458 191.30458 191.30458 0 0 1-192.132738 192.132739z m124.223753-203.312876c0-12.629415-1.449277-14.285732-14.078692-14.285731h-86.542548v-9.937901-132.091257c0-7.660465-2.277435-10.973098-10.14494-10.559019s-16.977246 0-25.46587 0-8.695663 2.070396-8.695662 8.281583v187.991947c0 6.211188 2.484475 8.902702 8.488623 8.902702h127.122307c5.797108 0 8.902702-2.484475 8.695663-8.695663v-29.606661z m0 0" p-id="23976" fill="#515151"></path></svg>