<?xml version="1.0" standalone="no"?><!DOCTYPE svg PUBLIC "-//W3C//DTD SVG 1.1//EN" "http://www.w3.org/Graphics/SVG/1.1/DTD/svg11.dtd"><svg t="1695109933732" class="icon" viewBox="0 0 1024 1024" version="1.1" xmlns="http://www.w3.org/2000/svg" p-id="1469" xmlns:xlink="http://www.w3.org/1999/xlink" width="200" height="200"><path d="M387.2 896c-69.333 0-124.8-30.933-124.8-67.2s55.467-67.2 124.8-67.2S512 792.533 512 828.8 456.533 896 387.2 896z m374.4-67.2c0-36.267-55.467-67.2-124.8-67.2S512 792.533 512 828.8 567.467 896 636.8 896s124.8-30.933 124.8-67.2z" fill="#FFC107" p-id="1470"></path><path d="M765.867 477.867c-2.134-5.334-4.267-11.734-5.334-19.2 2.134-9.6 2.134-19.2 2.134-28.8 0-26.667-2.134-50.134-2.134-69.334C759.467 231.467 648.533 128 512 128S262.4 231.467 262.4 360.533v69.334c0 9.6 0 19.2 2.133 28.8-2.133 5.333-4.266 11.733-5.333 19.2-36.267 52.266-72.533 115.2-72.533 163.2 0 91.733 26.666 82.133 26.666 82.133 11.734 0 30.934-19.2 48-40.533C300.8 795.733 396.8 876.8 512 876.8s211.2-81.067 251.733-194.133C780.8 704 800 723.2 811.733 723.2c0 0 26.667 9.6 26.667-82.133 0-48-36.267-114.134-72.533-163.2z" fill="#37474F" p-id="1471"></path><path d="M333.867 492.8c-9.6 28.8-13.867 59.733-13.867 91.733C320 724.267 406.4 838.4 512 838.4s192-113.067 192-253.867c0-33.066-5.333-62.933-13.867-91.733H333.867z" fill="#ECEFF1" p-id="1472"></path><path d="M492.8 310.4c0 36.267-21.333 67.2-48 67.2s-48-30.933-48-67.2 21.333-67.2 48-67.2 48 30.933 48 67.2z m86.4-67.2c-26.667 0-48 30.933-48 67.2s21.333 67.2 48 67.2 48-30.933 48-67.2-21.333-67.2-48-67.2z" fill="#FFFFFF" p-id="1473"></path><path d="M473.6 310.4c0 14.933-7.467 28.8-19.2 28.8s-19.2-13.867-19.2-28.8 7.467-28.8 19.2-28.8 19.2 13.867 19.2 28.8z m96-28.8c-11.733 0-19.2 13.867-19.2 28.8s7.467-9.6 19.2-9.6 19.2 24.533 19.2 9.6-7.467-28.8-19.2-28.8z" fill="#37474F" p-id="1474"></path><path d="M665.6 425.6c0 14.933-69.333 48-153.6 48s-153.6-33.067-153.6-48 69.333-28.8 153.6-28.8 153.6 13.867 153.6 28.8z" fill="#FFC107" p-id="1475"></path><path d="M794.667 458.667c-7.467-28.8-19.2-42.667-40.534-24.534 0 0-113.066 59.734-240 59.734V496v-2.133c-126.933 0-240-59.734-240-59.734-21.333-14.933-33.066-4.266-40.533 24.534-7.467 28.8-13.867 38.4 13.867 53.333 2.133 2.133 26.666 14.933 65.066 33.067-11.733 67.2-9.6 130.133-9.6 134.4C305.067 708.267 327.467 704 358.4 704c30.933-2.133 55.467 0 55.467-30.933 0-17.067 0-55.467 5.333-96 30.933 5.333 61.867 11.733 96 11.733 139.733 0 263.467-74.667 266.667-76.8 23.466-13.867 18.133-23.467 12.8-53.333z" fill="#FF3D00" p-id="1476"></path><path d="M305.067 583.467C336 595.2 372.267 608 412.8 616.533c0-11.733 2.133-24.533 4.267-38.4-40.534-9.6-76.8-21.333-105.6-33.066-3.2 12.8-5.334 26.666-6.4 38.4z" fill="#DD2C00" p-id="1477"></path></svg>