<?xml version="1.0" standalone="no"?><!DOCTYPE svg PUBLIC "-//W3C//DTD SVG 1.1//EN" "http://www.w3.org/Graphics/SVG/1.1/DTD/svg11.dtd"><svg t="1706059394341" class="icon" viewBox="0 0 1024 1024" version="1.1" xmlns="http://www.w3.org/2000/svg" p-id="15791" xmlns:xlink="http://www.w3.org/1999/xlink" width="200" height="200"><path d="M682.025 562.959c-9.7-9.7-25.427-9.699-35.126-0.001l-100.315 100.314v-590.124c0-13.718-11.121-24.837-24.837-24.837s-24.837 11.121-24.837 24.837v590.113l-100.301-100.301c-9.7-9.7-25.427-9.699-35.126 0.001-9.7 9.699-9.7 25.427 0 35.126l138.87 138.869c4.849 4.849 11.207 7.275 17.564 7.275 0.356 0 0.709-0.036 1.063-0.051 0.91 0.101 1.831 0.163 2.768 0.163 0.939 0 1.86-0.062 2.77-0.164 0.358 0.015 0.715 0.051 1.074 0.051 6.355 0 12.714-2.426 17.564-7.275l138.87-138.869c9.698-9.699 9.698-25.427-0.001-35.126zM897.86 409.648c-26.106-19.455-60.42-30.17-96.627-30.17l-146.473 0.004c-13.665 0.062-24.725 11.152-24.725 24.833 0 13.68 11.060 24.771 24.725 24.833v0.004h146.473c49.231 0 90.822 28.101 90.822 61.362v396.442c0 33.261-41.593 61.362-90.822 61.362h-584.046c-49.231 0-90.822-28.101-90.822-61.362v-396.442c0-33.261 41.593-61.362 90.822-61.362l166.007-0.005c0.038 0 0.075 0.005 0.113 0.005 13.718 0 24.837-11.121 24.837-24.837s-11.121-24.837-24.837-24.837c-0.038 0-0.075 0.004-0.113 0.005v-0.005h-166.007c-36.206 0-70.523 10.716-96.627 30.17-28.291 21.085-43.872 49.806-43.872 80.868v396.442c0 31.063 15.58 59.785 43.872 80.868 26.106 19.455 60.42 30.17 96.627 30.17h584.046c36.205 0 70.522-10.716 96.627-30.17 28.291-21.085 43.872-49.806 43.872-80.868v-396.442c0-31.063-15.581-59.785-43.872-80.868z" fill="#515151" p-id="15792"></path></svg>