<?xml version="1.0" standalone="no"?><!DOCTYPE svg PUBLIC "-//W3C//DTD SVG 1.1//EN" "http://www.w3.org/Graphics/SVG/1.1/DTD/svg11.dtd"><svg t="1681213831908" class="icon" viewBox="0 0 1024 1024" version="1.1" xmlns="http://www.w3.org/2000/svg" p-id="2613" xmlns:xlink="http://www.w3.org/1999/xlink" width="200" height="200"><path d="M512 958.016611c-119.648434 0-232.1288-46.367961-316.736783-130.559656-84.640667-84.255342-131.263217-196.255772-131.263217-315.455235 0-119.168499 46.624271-231.199892 131.232254-315.424271 84.607983-84.191695 197.088348-130.559656 316.736783-130.559656s232.1288 46.367961 316.704099 130.559656c84.67163 84.224378 131.263217 196.255772 131.263217 315.391587 0.032684 119.199462-46.591587 231.232576-131.263217 315.455235C744.1288 911.615966 631.648434 958.016611 512 958.016611zM512 129.983389c-102.623626 0-199.071738 39.743475-271.583282 111.936783-72.480581 72.12794-112.416718 168.063432-112.416718 270.079828s39.903454 197.951888 112.384034 270.047144c72.511544 72.191587 168.959656 111.936783 271.583282 111.936783 102.592662 0 199.071738-39.743475 271.583282-111.936783 72.480581-72.160624 112.416718-168.063432 112.384034-270.079828 0-102.016396-39.903454-197.919204-112.384034-270.016181C711.071738 169.759548 614.592662 129.983389 512 129.983389z" fill="#515151" p-id="2614"></path><path d="M736.00086 480.00086 544.00086 480.00086 544.00086 288.00086c0-17.664722-14.336138-32.00086-32.00086-32.00086s-32.00086 14.336138-32.00086 32.00086l0 192L288.00086 480.00086c-17.664722 0-32.00086 14.336138-32.00086 32.00086s14.336138 32.00086 32.00086 32.00086l192 0 0 192c0 17.695686 14.336138 32.00086 32.00086 32.00086s32.00086-14.303454 32.00086-32.00086L544.00258 544.00086l192 0c17.695686 0 32.00086-14.336138 32.00086-32.00086S753.696546 480.00086 736.00086 480.00086z" fill="#515151" p-id="2615"></path></svg>