<?xml version="1.0" standalone="no"?><!DOCTYPE svg PUBLIC "-//W3C//DTD SVG 1.1//EN" "http://www.w3.org/Graphics/SVG/1.1/DTD/svg11.dtd"><svg t="1724660473742" class="icon" viewBox="0 0 1024 1024" version="1.1" xmlns="http://www.w3.org/2000/svg" p-id="4295" xmlns:xlink="http://www.w3.org/1999/xlink" width="200" height="200"><path d="M828.48347223 834.4157193h-648.96313258c-69.2900405 0-125.65451404-55.1587343-125.6545135-122.92149425v-397.18787138c0-67.7788454 56.36447331-122.9375799 125.6545135-122.93757945h648.96313258c69.2900405 0 125.65451404 55.1587343 125.65451375 122.93757945v397.18787138c0.01607252 67.7627728-56.36447331 122.9214939-125.65451375 122.92149425z m-648.96313258-562.68014716c-24.96692373 0-45.27164294 19.09896711-45.27164336 42.554696v397.18788433c0 23.45572846 20.32079163 42.53862338 45.27164336 42.53862356h648.96313258c24.96692373 0 45.27164294-19.09896711 45.27163001-42.53862356v-397.18788433c0-23.45572846-20.32079163-42.55469586-45.27163001-42.554696h-648.96313258z" fill="#1296db" p-id="4296"></path><path d="M262.86131081 400.34818623h353.6846619a32.15315356 32.15315356 0 0 1 0 64.30629382h-353.6846619a32.15315356 32.15315356 0 1 1 0-64.30629382zM262.86131081 577.19051735h482.29726314a32.15315356 32.15315356 0 0 1 0 64.30629368h-482.29726314a32.15315356 32.15315356 0 1 1 0-64.30629368z" fill="#1296db" p-id="4297"></path></svg>