<?xml version="1.0" standalone="no"?><!DOCTYPE svg PUBLIC "-//W3C//DTD SVG 1.1//EN" "http://www.w3.org/Graphics/SVG/1.1/DTD/svg11.dtd"><svg t="1728905820110" class="icon" viewBox="0 0 1024 1024" version="1.1" xmlns="http://www.w3.org/2000/svg" p-id="6620" xmlns:xlink="http://www.w3.org/1999/xlink" width="200" height="200"><path d="M0 0h1024v1024H0z" fill="#1296db" fill-opacity="0" p-id="6621"></path><path d="M160.384 130.56a32 32 0 0 1 32 32v670.272h671.744a32 32 0 0 1 0 64H192.384a64 64 0 0 1-64-64V162.496a32 32 0 0 1 32-32z m382.208 527.488a48 48 0 1 1 0 96 48 48 0 0 1 0-96z m-256-128a48 48 0 1 1 0 96 48 48 0 0 1 0-96z m480-32a48 48 0 1 1 0 96 48 48 0 0 1 0-96z m-317.44-288a48 48 0 1 1 0 96 48 48 0 0 1 0-96z m285.44-81.984a48 48 0 1 1 0 96 48 48 0 0 1 0-96z" fill="#1296db" p-id="6622"></path></svg>