<?xml version="1.0" standalone="no"?><!DOCTYPE svg PUBLIC "-//W3C//DTD SVG 1.1//EN" "http://www.w3.org/Graphics/SVG/1.1/DTD/svg11.dtd"><svg t="1753673750023" class="icon" viewBox="0 0 1024 1024" version="1.1" xmlns="http://www.w3.org/2000/svg" p-id="4497" xmlns:xlink="http://www.w3.org/1999/xlink" width="200" height="200"><path d="M16.213333 442.752l-11.605333-1.578667c-2.048 14.677333-3.498667 29.653333-4.309333 44.416l11.733333 0.682667c0.768-14.506667 2.176-29.098667 4.181333-43.52z m160.256-302.421333l-7.850666-8.746667c-11.008 9.898667-21.717333 20.48-31.829334 31.317333l8.618667 8.021334c9.856-10.581333 20.309333-20.906667 31.061333-30.592z m69.674667-52.48l-6.229333-10.026667c-12.629333 7.936-25.002667 16.426667-36.821334 25.344l7.082667 9.344c11.52-8.661333 23.637333-17.024 35.968-24.661333z m-168.32 695.893333c7.893333 12.672 16.384 25.002667 25.301333 36.821333l9.386667-6.997333a497.834667 497.834667 0 0 1-24.746667-36.010667l-9.941333 6.186667z m-29.738667-83.925333l-10.88 4.437333c5.504 13.568 11.690667 27.093333 18.389334 40.234667l0.213333 0.426666 10.453333-5.333333-0.213333-0.426667a509.056 509.056 0 0 1-17.962667-39.338666zM12.714667 397.184l11.477333 2.688c3.242667-14.165333 7.168-28.330667 11.605333-42.069333l-11.136-3.712c-4.608 14.165333-8.618667 28.672-11.946666 43.093333zM11.690667 529.92l-11.733334 0.426667c0.512 14.848 1.706667 29.824 3.541334 44.501333l11.648-1.408c-1.792-14.336-2.944-29.013333-3.456-43.52z m-0.768 89.002667c3.114667 14.506667 6.912 29.098667 11.264 43.264l11.221333-3.413334c-4.266667-13.909333-7.978667-28.074667-11.008-42.24l-11.477333 2.389334zM493.781333 11.733333L493.354667 0c-14.848 0.512-29.824 1.664-44.544 3.498667l1.450666 11.648c14.421333-1.749333 29.013333-2.901333 43.52-3.413334z m496.981334 353.749334c4.266667 13.909333 7.936 28.16 10.922666 42.325333l11.52-2.517333c-3.072-14.506667-6.826667-29.098667-11.178666-43.264l-11.264 3.456z m-238.933334-306.218667a505.557333 505.557333 0 0 0-40.405333-19.157333l-4.565333 10.752c13.397333 5.674667 26.666667 11.989333 39.509333 18.730666l5.461333-10.325333zM669.568 24.405333c-14.165333-4.48-28.586667-8.490667-43.093333-11.818666l-2.688 11.434666c14.165333 3.242667 28.330667 7.168 42.154666 11.648l3.626667-11.264z m-384.810667 41.514667c12.714667-6.4 25.856-12.416 39.082667-17.834667L319.402667 37.248c-13.525333 5.418667-26.965333 11.605333-39.978667 18.261333l-0.64 0.341334 5.333333 10.410666 0.64-0.341333z m727.594667 428.501333l11.733333-0.426666a503.338667 503.338667 0 0 0-3.498666-44.586667l-11.648 1.408c1.749333 14.421333 2.901333 29.098667 3.413333 43.605333zM582.570667 4.48c-14.762667-2.005333-29.696-3.413333-44.501334-4.181333l-0.597333 11.648c14.464 0.768 29.141333 2.176 43.477333 4.181333l1.621334-11.648z m-175.36 18.005333l-2.474667-11.52c-14.506667 3.072-29.056 6.826667-43.264 11.264l3.456 11.178667c13.866667-4.224 28.117333-7.893333 42.282667-10.922667zM81.962667 233.344l9.856 6.4c7.893333-12.16 16.384-24.149333 25.258666-35.584l-9.258666-7.253333c-9.088 11.776-17.792 24.021333-25.856 36.437333zM40.234667 312.234667l10.794666 4.565333c5.632-13.354667 11.946667-26.666667 18.730667-39.424l-10.368-5.461333c-6.954667 13.098667-13.397333 26.666667-19.157333 40.32z m737.28 624l6.186666 9.984c12.586667-7.936 25.002667-16.426667 36.821334-25.344l-6.997334-9.344c-11.605333 8.704-23.765333 17.066667-36.010666 24.704z m129.066666-116.224l9.258667 7.253333c9.173333-11.648 17.834667-23.936 25.898667-36.437333l-9.813334-6.314667c-7.936 12.16-16.426667 24.064-25.344 35.498667z m-59.434666 63.829333l7.850666 8.661333c11.008-9.813333 21.76-20.437333 31.829334-31.232l-8.576-8.021333c-9.813333 10.581333-20.352 20.821333-31.104 30.592z m106.837333-137.002667l10.410667 5.504c6.912-13.098667 13.397333-26.666667 19.157333-40.32l-10.837333-4.565333a480.853333 480.853333 0 0 1-18.730667 39.381333z m53.674667-165.333333l11.648 1.664c2.090667-14.762667 3.498667-29.653333 4.352-44.501333l-11.733334-0.597334a479.573333 479.573333 0 0 1-4.266666 43.434667z m-19.669334 84.992l11.264 3.669333c4.565333-14.165333 8.576-28.586667 11.904-43.093333l-11.434666-2.688c-3.285333 14.208-7.210667 28.373333-11.733334 42.112z m-29.994666-381.824c6.570667 12.928 12.672 26.325333 18.090666 39.765333l10.922667-4.437333a513.152 513.152 0 0 0-18.602667-40.661333l-10.410666 5.333333zM353.962667 999.168c14.122667 4.565333 28.586667 8.576 43.050666 11.904l2.645334-11.434667a495.104 495.104 0 0 1-42.069334-11.648l-3.626666 11.178667z m86.997333 20.096c14.72 2.090667 29.696 3.498667 44.501333 4.352l0.597334-11.733333a513.152 513.152 0 0 1-43.477334-4.181334l-1.621333 11.562667z m298.282667-61.44c-12.928 6.570667-26.154667 12.672-39.509334 18.090667l4.437334 10.922666c13.568-5.589333 27.264-11.733333 40.405333-18.517333l0.170667-0.085333-5.248-10.496-0.256 0.085333z m-542.421334-41.898667c11.690667 9.088 23.978667 17.834667 36.437334 25.813334l6.357333-9.813334a519.68 519.68 0 0 1-35.541333-25.258666l-7.253334 9.258666z m332.970667 96.341334l0.384 11.733333a538.026667 538.026667 0 0 0 44.586667-3.584l-1.493334-11.562667c-14.336 1.749333-29.013333 2.901333-43.477333 3.413334zM271.786667 964.437333c13.098667 6.912 26.666667 13.397333 40.362666 19.157334l4.565334-10.837334a496.896 496.896 0 0 1-39.424-18.730666l-5.504 10.410666z m-140.245334-109.354666c9.941333 11.008 20.48 21.76 31.317334 31.829333l8.021333-8.576c-10.624-9.813333-20.906667-20.352-30.592-31.104l-8.746667 7.850667z m484.778667 146.517333l2.517333 11.52a512 512 0 0 0 43.264-11.349333l-3.498666-11.178667c-13.866667 4.224-28.117333 7.893333-42.282667 11.008zM903.68 5.504a114.730667 114.730667 0 1 0 0 229.461333 114.730667 114.730667 0 1 0 0-229.461333z m-249.856 653.568c0 20.096 13.397333 28.16 36.352 28.16 28.586667 0 55.338667-16.896 55.338667-43.349333v-27.52c-9.813333 4.565333-16.170667 6.016-47.232 10.24-31.36 4.650667-44.458667 13.056-44.458667 32.469333zM512 120.234667a391.68 391.68 0 0 0-391.68 391.68A391.68 391.68 0 1 0 512 120.234667z m-106.112 587.52H246.229333v-256.981334h32.810667v228.096h126.890667v28.885334z m176.213333 0h-26.410666v-28.586667c-17.28 24.32-34.602667 33.834667-61.696 33.834667-35.968 0-58.88-19.754667-58.88-50.432v-139.562667h29.269333v128c0 22.186667 14.805333 36.266667 38.101333 36.266667 30.677333 0 50.389333-24.661333 50.389334-62.336v-101.930667h29.269333v184.746667z m-22.613333-358.101334a114.773333 114.773333 0 1 1 229.333333 0.042667 114.773333 114.773333 0 0 1-229.333333-0.042667z m237.525333 335.189334v22.186666c-9.514667 2.517333-14.08 3.157333-20.096 3.157334a31.146667 31.146667 0 0 1-30.336-24.32 86.4 86.4 0 0 1-62.762666 27.178666c-37.418667 0-60.672-19.754667-60.672-53.248 0-22.485333 10.922667-39.082667 32.426666-47.914666 11.349333-4.565333 17.664-6.016 59.264-11.264 23.253333-2.816 30.677333-8.149333 30.677334-20.48v-7.765334c0-17.578667-14.848-27.52-41.258667-27.52-27.52 0-40.832 10.24-43.349333 32.853334h-29.568c1.749333-42.666667 29.269333-59.904 73.984-59.904 45.482667 0 69.418667 17.578667 69.418666 50.432v102.912c0 9.173333 5.674667 14.421333 15.914667 14.421333 1.749333-0.085333 3.157333-0.085333 6.357333-0.725333z" p-id="4498" fill="#1296db"></path></svg>