<?xml version="1.0" standalone="no"?><!DOCTYPE svg PUBLIC "-//W3C//DTD SVG 1.1//EN" "http://www.w3.org/Graphics/SVG/1.1/DTD/svg11.dtd"><svg t="1744294404270" class="icon" viewBox="0 0 1024 1024" version="1.1" xmlns="http://www.w3.org/2000/svg" p-id="3138" xmlns:xlink="http://www.w3.org/1999/xlink" width="48" height="48"><path d="M946.944532 874.898147L787.540032 718.396767c50.76929-67.228147 81.246419-150.642952 81.246419-241.389746 0-221.655286-179.64652-401.348877-401.348878-401.348877-221.675752 0-401.348877 179.694615-401.348877 401.348877 0 221.699288 179.671079 401.372414 401.348877 401.372414 102.136192 0 195.09742-38.47836 265.923512-101.305267l159.633721 156.708088c15.679098 15.398712 40.46255 14.755052 55.381331-1.474585 14.869662-16.231683 14.247492-41.961694-1.431605-57.409524z m-479.482399-67.321268c-182.551686 0-330.521762-147.993612-330.521763-330.546322 0-182.530197 147.970076-330.521762 330.521763-330.521762 182.532243 0 330.523809 147.992589 330.523809 330.521762 0 182.552709-147.994636 330.546322-330.523809 330.546322z" p-id="3139" fill="#1296db"></path></svg>