<?xml version="1.0" standalone="no"?><!DOCTYPE svg PUBLIC "-//W3C//DTD SVG 1.1//EN" "http://www.w3.org/Graphics/SVG/1.1/DTD/svg11.dtd"><svg t="1753682546422" class="icon" viewBox="0 0 1024 1024" version="1.1" xmlns="http://www.w3.org/2000/svg" p-id="5643" xmlns:xlink="http://www.w3.org/1999/xlink" width="200" height="200"><path d="M358.78 502.93l-1.45-4.17L496.73 98.3h-50.54l-116 353.47L218.29 98.3h-53.07l1.54 4.58c16.66 49.2 62.64 182.46 136.82 396.12l1.46 4.21-149.5 425.01h50.26l123.49-379.91 123.48 379.91h51.68l-1.5-4.58c-16.77-50.77-65.31-192.31-144.19-420.71z m511.79-380.1" p-id="5644" fill="#1296db"></path><path d="M872.22 95.82L742.85 571.4 613 98.39l-0.7-2.57H565l100.62 335.25c1.49 4.83 11.11 33.86 28.6 86.34A629.69 629.69 0 0 1 718.55 608l0.25 1.37v321.17h46.3V608.77l0.51-1.93c21.65-81.46 39.4-140.72 52.77-176.13L918.91 95.82z" fill="#1296db" p-id="5645"></path></svg>