<?xml version="1.0" standalone="no"?><!DOCTYPE svg PUBLIC "-//W3C//DTD SVG 1.1//EN" "http://www.w3.org/Graphics/SVG/1.1/DTD/svg11.dtd"><svg t="1775816853908" class="icon" viewBox="0 0 1024 1024" version="1.1" xmlns="http://www.w3.org/2000/svg" p-id="5846" xmlns:xlink="http://www.w3.org/1999/xlink" width="200" height="200"><path d="M960 640v96c0 17.673-14.327 32-32 32H96c-17.673 0-32-14.327-32-32v-96h896z m-32-512c17.673 0 32 14.327 32 32v448H64V160c0-17.673 14.327-32 32-32h832z m-562.55 75.177L139.178 429.45l22.627 22.627 226.274-226.274-22.627-22.627z m-90.509 0L139.177 338.94l22.627 22.628 135.765-135.765-22.628-22.627z" fill="#0072C6" p-id="5847"></path><path d="M192 832m32 0l576 0q32 0 32 32l0 0q0 32-32 32l-576 0q-32 0-32-32l0 0q0-32 32-32Z" fill="#0072C6" p-id="5848"></path><path d="M384 768h256v64H384z" fill="#0072C6" p-id="5849"></path></svg>