<?xml version="1.0" standalone="no"?><!DOCTYPE svg PUBLIC "-//W3C//DTD SVG 1.1//EN" "http://www.w3.org/Graphics/SVG/1.1/DTD/svg11.dtd"><svg t="1749286595294" class="icon" viewBox="0 0 1024 1024" version="1.1" xmlns="http://www.w3.org/2000/svg" p-id="4249" xmlns:xlink="http://www.w3.org/1999/xlink" width="200" height="200"><path d="M120 160H72c-4.4 0-8 3.6-8 8v688c0 4.4 3.6 8 8 8h48c4.4 0 8-3.6 8-8V168c0-4.4-3.6-8-8-8z m833 0h-48c-4.4 0-8 3.6-8 8v688c0 4.4 3.6 8 8 8h48c4.4 0 8-3.6 8-8V168c0-4.4-3.6-8-8-8zM200 736h112c4.4 0 8-3.6 8-8V168c0-4.4-3.6-8-8-8H200c-4.4 0-8 3.6-8 8v560c0 4.4 3.6 8 8 8z m321 0h48c4.4 0 8-3.6 8-8V168c0-4.4-3.6-8-8-8h-48c-4.4 0-8 3.6-8 8v560c0 4.4 3.6 8 8 8z m126 0h178c4.4 0 8-3.6 8-8V168c0-4.4-3.6-8-8-8H647c-4.4 0-8 3.6-8 8v560c0 4.4 3.6 8 8 8z m-255 0h48c4.4 0 8-3.6 8-8V168c0-4.4-3.6-8-8-8h-48c-4.4 0-8 3.6-8 8v560c0 4.4 3.6 8 8 8z m-79 64H201c-4.4 0-8 3.6-8 8v48c0 4.4 3.6 8 8 8h112c4.4 0 8-3.6 8-8v-48c0-4.4-3.6-8-8-8z m257 0h-48c-4.4 0-8 3.6-8 8v48c0 4.4 3.6 8 8 8h48c4.4 0 8-3.6 8-8v-48c0-4.4-3.6-8-8-8z m256 0H648c-4.4 0-8 3.6-8 8v48c0 4.4 3.6 8 8 8h178c4.4 0 8-3.6 8-8v-48c0-4.4-3.6-8-8-8z m-385 0h-48c-4.4 0-8 3.6-8 8v48c0 4.4 3.6 8 8 8h48c4.4 0 8-3.6 8-8v-48c0-4.4-3.6-8-8-8z" fill="#1296db" p-id="4250"></path></svg>