<?xml version="1.0" standalone="no"?><!DOCTYPE svg PUBLIC "-//W3C//DTD SVG 1.1//EN" "http://www.w3.org/Graphics/SVG/1.1/DTD/svg11.dtd"><svg t="1726102461655" class="icon" viewBox="0 0 1025 1024" version="1.1" xmlns="http://www.w3.org/2000/svg" p-id="6883" xmlns:xlink="http://www.w3.org/1999/xlink" width="200.1953125" height="200"><path d="M610.645333 187.107556h-542.72c-37.546667 0-67.925333-29.070222-67.925333-65.137778 0-35.84 30.378667-64.910222 67.925333-64.910222h542.72c37.432889 0 67.754667 29.070222 67.754667 64.910222 0 36.067556-30.321778 65.137778-67.754667 65.137778z m346.510223 520.362666h-339.399112c-37.376 0-67.697778-29.070222-67.697777-64.910222 0-36.124444 30.321778-65.137778 67.697777-65.137778h339.285334c37.432889 0 67.697778 29.013333 67.697778 65.137778 0.113778 35.84-30.208 64.910222-67.584 64.910222z m0 260.323556H67.925333c-37.432889 0-67.925333-29.070222-67.925333-64.910222 0-36.124444 30.378667-65.194667 67.925333-65.194667h889.230223c37.376 0 67.697778 29.070222 67.697777 65.194667 0 35.84-30.321778 64.910222-67.697777 64.910222z m-617.927112-195.128889c-37.376 0-67.925333-29.184-67.925333-65.194667V187.107556c0-35.953778 23.324444 0 60.871111 0 37.546667 0 74.752-35.953778 74.752 0v520.476444c0.113778 35.896889-30.151111 65.080889-67.697778 65.080889z m617.927112-325.347556h-203.662223c-37.319111 0-67.754667-29.070222-67.754666-64.910222 0-36.124444 30.435556-65.194667 67.754666-65.194667h203.662223c37.376 0 67.697778 29.070222 67.697777 65.194667 0 35.84-30.321778 64.910222-67.697777 64.910222z" fill="#515151" p-id="6884"></path><path d="M332.117333 187.107556H271.36c0-35.953778 23.324444 0 60.871111 0z" fill="#515151" p-id="6885"></path><path d="M406.926222 187.107556H332.117333c37.546667 0 74.808889-35.953778 74.808889 0z" fill="#515151" p-id="6886"></path></svg>