<?xml version="1.0" standalone="no"?><!DOCTYPE svg PUBLIC "-//W3C//DTD SVG 1.1//EN" "http://www.w3.org/Graphics/SVG/1.1/DTD/svg11.dtd"><svg t="1726102930822" class="icon" viewBox="0 0 1024 1024" version="1.1" xmlns="http://www.w3.org/2000/svg" p-id="3685" xmlns:xlink="http://www.w3.org/1999/xlink" width="200" height="200"><path d="M28.961176 511.087309m36.203867-36.203867l460.87523-460.87523q36.203867-36.203867 72.407734 0l0 0q36.203867 36.203867 0 72.407735l-460.875229 460.875229q-36.203867 36.203867-72.407735 0l0 0q-36.203867-36.203867 0-72.407734Z" p-id="3686" fill="#515151"></path><path d="M101.294683 439.557757m36.203868 36.203867l460.875229 460.875229q36.203867 36.203867 0 72.407735l0 0q-36.203867 36.203867-72.407734 0l-460.87523-460.87523q-36.203867-36.203867 0-72.407734l0 0q36.203867-36.203867 72.407735 0Z" p-id="3687" fill="#515151"></path><path d="M398.454761 511.242728m36.203867-36.203867l460.875229-460.875229q36.203867-36.203867 72.407735 0l0 0q36.203867 36.203867 0 72.407734l-460.87523 460.875229q-36.203867 36.203867-72.407734 0l0 0q-36.203867-36.203867 0-72.407734Z" p-id="3688" fill="#515151"></path><path d="M470.788801 439.657051m36.203867 36.203867l460.875229 460.87523q36.203867 36.203867 0 72.407734l0 0q-36.203867 36.203867-72.407734 0l-460.875229-460.87523q-36.203867-36.203867 0-72.407734l0 0q36.203867-36.203867 72.407734 0Z" p-id="3689" fill="#515151"></path></svg>