<?xml version="1.0" standalone="no"?><!DOCTYPE svg PUBLIC "-//W3C//DTD SVG 1.1//EN" "http://www.w3.org/Graphics/SVG/1.1/DTD/svg11.dtd"><svg t="1706084934965" class="icon" viewBox="0 0 1024 1024" version="1.1" xmlns="http://www.w3.org/2000/svg" p-id="4462" xmlns:xlink="http://www.w3.org/1999/xlink" width="200" height="200"><path d="M622 364H402c-8.3 0-15-6.7-15-15s6.7-15 15-15h220c8.3 0 15 6.7 15 15s-6.7 15-15 15zM622 462H402c-8.3 0-15-6.7-15-15s6.7-15 15-15h220c8.3 0 15 6.7 15 15s-6.7 15-15 15zM567.7 560H402c-8.3 0-15-6.7-15-15s6.7-15 15-15h165.7c8.3 0 15 6.7 15 15s-6.8 15-15 15z" fill="#333333" p-id="4463"></path><path d="M712 218H312c-22.1 0-40 17.9-40 40v508c0 22.1 17.9 40 40 40h250c9.6 0 19-1.9 27.7-5.5s16.7-8.9 23.5-15.7l8.8-8.8H322c-11.1 0-20-9-20-20V268c0-11 8.9-20 20-20h380c11.1 0 20 9 20 20v408l8.8-8.8c13.6-13.6 21.2-32 21.2-51.2V258c0-22.1-17.9-40-40-40z" fill="#333333" p-id="4464"></path><path d="M602 616c-22.1 0-40 17.9-40 40v150c9.6 0 19-1.9 27.7-5.5s16.7-8.9 23.5-15.7L722 676l8.8-8.8c13.6-13.6 21.2-32 21.2-51.2H602z m-10 147.6V666c0-11 8.9-20 20-20h97.6L592 763.6z" fill="#333333" p-id="4465"></path></svg>