<?xml version="1.0" standalone="no"?><!DOCTYPE svg PUBLIC "-//W3C//DTD SVG 1.1//EN" "http://www.w3.org/Graphics/SVG/1.1/DTD/svg11.dtd"><svg t="1726102586136" class="icon" viewBox="0 0 1024 1024" version="1.1" xmlns="http://www.w3.org/2000/svg" p-id="9976" xmlns:xlink="http://www.w3.org/1999/xlink" width="200" height="200"><path d="M974.631304 356.675652a48.872297 48.872297 0 0 0-48.872297 48.872297v442.665308a76.76277 76.76277 0 0 1-76.76277 76.76277H175.530868a76.76277 76.76277 0 0 1-76.762771-76.76277v-442.665308a48.872297 48.872297 0 1 0-97.744593 0v442.665308A175.786743 175.786743 0 0 0 175.530868 1024h672.697741A175.530868 175.530868 0 0 0 1023.503601 848.213257v-442.665308a48.872297 48.872297 0 0 0-48.872297-48.872297z" p-id="9977" fill="#515151"></path><path d="M386.372609 749.189283h245.89674a51.17518 51.17518 0 0 1 51.17518 41.707772 48.872297 48.872297 0 0 1-48.360545 55.780946h-244.873236a51.17518 51.17518 0 0 1-51.17518-41.451896 49.128173 49.128173 0 0 1 47.337041-56.036822zM527.616106 599.501882l-204.70072-234.382325a12.793795 12.793795 0 0 1 9.723284-21.2377h110.538389a13.049671 13.049671 0 0 0 12.793795-13.049671 999.963018 999.963018 0 0 0-7.420401-122.30868A274.043089 274.043089 0 0 0 349.52648 23.52523a12.793795 12.793795 0 0 1 10.490912-23.028831c215.703384 35.822626 261.249294 277.1136 268.925571 332.63867a12.537919 12.537919 0 0 0 12.537919 11.002664H742.040111a12.793795 12.793795 0 0 1 9.723284 21.2377l-204.70072 234.382324a12.793795 12.793795 0 0 1-19.446569-0.255875z" p-id="9978" fill="#515151"></path></svg>