<?xml version="1.0" standalone="no"?><!DOCTYPE svg PUBLIC "-//W3C//DTD SVG 1.1//EN" "http://www.w3.org/Graphics/SVG/1.1/DTD/svg11.dtd"><svg t="1726102936921" class="icon" viewBox="0 0 1024 1024" version="1.1" xmlns="http://www.w3.org/2000/svg" p-id="3910" xmlns:xlink="http://www.w3.org/1999/xlink" width="200" height="200"><path d="M931.614117 583.571843m-36.203868-36.203867l-460.875229-460.875229q-36.203867-36.203867 0-72.407735l0 0q36.203867-36.203867 72.407734 0l460.87523 460.87523q36.203867 36.203867 0 72.407734l0 0q-36.203867 36.203867-72.407735 0Z" p-id="3911" fill="#515151"></path><path d="M1003.938839 511.743876m-36.203867 36.203867l-460.875229 460.875229q-36.203867 36.203867-72.407735 0l0 0q-36.203867-36.203867 0-72.407734l460.87523-460.87523q36.203867-36.203867 72.407734 0l0 0q36.203867 36.203867 0 72.407735Z" p-id="3912" fill="#515151"></path><path d="M562.038807 583.604941m-36.203867-36.203867l-460.87523-460.875229q-36.203867-36.203867 0-72.407735l0 0q36.203867-36.203867 72.407735 0l460.875229 460.87523q36.203867 36.203867 0 72.407734l0 0q-36.203867 36.203867-72.407734 0Z" p-id="3913" fill="#515151"></path><path d="M634.348534 511.921789m-36.203868 36.203867l-460.875229 460.87523q-36.203867 36.203867-72.407734 0l0 0q-36.203867-36.203867 0-72.407735l460.875229-460.875229q36.203867-36.203867 72.407734 0l0 0q36.203867 36.203867 0 72.407734Z" p-id="3914" fill="#515151"></path></svg>