<?xml version="1.0" standalone="no"?>
<!DOCTYPE svg PUBLIC "-//W3C//DTD SVG 1.1//EN" "http://www.w3.org/Graphics/SVG/1.1/DTD/svg11.dtd">
<svg t="1681711074964" class="icon" viewBox="0 0 1024 1024" version="1.1" xmlns="http://www.w3.org/2000/svg" p-id="6749" xmlns:xlink="http://www.w3.org/1999/xlink" width="200" height="200">
    <path d="M958.250132 68.278709c-87.786911-87.786911-230.4858-87.786911-318.272711 0L386.55142 321.70471c-87.786911 87.786911-87.786911 230.4858 0 318.272711 19.688834 19.688834 42.629035 35.403775 68.098077 46.78356l26.552831-59.96966c-18.06315-7.947786-34.319986-19.146939-48.228611-33.055565-62.137238-62.137238-62.137238-163.29088 0-225.428118L686.399718 114.701005c62.137238-62.137238 163.29088-62.137238 225.428118 0 29.98483 29.98483 46.602928 70.085024 46.602928 112.533428 0 42.629035-16.618098 82.729229-46.602928 112.714059l-153.536779 153.536779 46.422296 46.422296 153.536779-153.536779c42.448404-42.448404 65.749868-98.986065 65.749868-159.316987 0-59.789028-23.301464-116.326689-65.749868-158.775092z" fill="#515151" p-id="6750"></path><path d="M541.171988 325.497971l-17.340624 63.401659c26.191568 7.22526 49.493032 20.772623 69.181866 40.461457 29.98483 29.98483 46.602928 70.085024 46.602928 112.714059s-16.618098 82.548598-46.602928 112.533427L339.587229 908.034574c-30.165461 30.165461-70.085024 46.602928-112.714059 46.602928s-82.548598-16.618098-112.714059-46.602928c-30.165461-30.165461-46.602928-70.085024-46.602928-112.714059s16.618098-82.548598 46.602928-112.714059l161.303934-161.303934-46.422297-46.422296-161.303934 161.303933C25.288411 678.813195 1.806315 735.350856 1.806315 795.320515s23.482096 116.687952 65.930499 159.136356 98.986065 65.930499 159.136356 65.930499 116.687952-23.482096 159.136355-65.930499L639.435527 701.211501c42.448404-42.448404 65.749868-98.986065 65.749867-159.136355 0-60.330923-23.301464-116.868584-65.749867-159.316988-27.455989-27.275357-61.414712-47.144823-98.263539-57.260187z" fill="#515151" p-id="6751">
    </path>
    <text x="650" y="1019" font-size="512" fill="#515151">
        S
    </text>
</svg>