<?xml version="1.0" standalone="no"?><!DOCTYPE svg PUBLIC "-//W3C//DTD SVG 1.1//EN" "http://www.w3.org/Graphics/SVG/1.1/DTD/svg11.dtd"><svg t="1706059532249" class="icon" viewBox="0 0 1024 1024" version="1.1" xmlns="http://www.w3.org/2000/svg" p-id="22012" xmlns:xlink="http://www.w3.org/1999/xlink" width="200" height="200"><path d="M524.56106667 121.51466667c215.17653333 0 390.48533333 175.3088 390.48533333 390.48533333s-175.3088 390.48533333-390.48533333 390.48533333S133.5296 727.17653333 133.5296 512 308.8384 121.51466667 524.56106667 121.51466667M524.56106667 58.70933333c-250.12906667 0-453.29066667 203.1616-453.29066667 453.29066667 0 250.12906667 202.61546667 453.29066667 453.29066667 453.29066667 250.12906667 0 453.29066667-202.61546667 453.29066666-453.29066667C977.85173333 261.87093333 774.69013333 58.70933333 524.56106667 58.70933333L524.56106667 58.70933333z" p-id="22013" fill="#515151"></path><path d="M571.52853333 600.4736c-8.192 0-15.83786667-3.2768-21.84533333-9.28426667L384.2048 425.71093333c-12.01493333-12.01493333-12.01493333-32.22186667 0-44.2368 12.01493333-12.01493333 32.22186667-12.01493333 44.2368 0l165.4784 165.4784c12.01493333 12.01493333 12.01493333 32.22186667 0 44.2368C587.91253333 597.1968 579.72053333 600.4736 571.52853333 600.4736z" p-id="22014" fill="#515151"></path><path d="M524.56106667 632.14933333c-17.47626667 0-31.1296-14.19946667-31.1296-31.1296L493.43146667 293.00053333c0-17.47626667 14.19946667-31.1296 31.1296-31.1296 17.47626667 0 31.1296 14.19946667 31.1296 31.1296l0 307.47306667C555.69066667 617.94986667 541.4912 632.14933333 524.56106667 632.14933333z" p-id="22015" fill="#515151"></path><path d="M220.91093333 543.1296l-46.96746666 0c-17.47626667 0-31.1296-14.19946667-31.1296-31.1296 0-17.47626667 14.19946667-31.1296 31.1296-31.1296l46.96746666 0c17.47626667 0 31.1296 14.19946667 31.1296 31.1296C252.04053333 528.93013333 238.3872 543.1296 220.91093333 543.1296z" p-id="22016" fill="#515151"></path><path d="M875.17866667 543.1296L828.75733333 543.1296c-17.47626667 0-31.1296-14.19946667-31.1296-31.1296 0-17.47626667 14.19946667-31.1296 31.1296-31.1296l46.96746667 0c17.47626667 0 31.1296 14.19946667 31.1296 31.1296C906.8544 528.93013333 892.65493333 543.1296 875.17866667 543.1296z" p-id="22017" fill="#515151"></path><path d="M524.01493333 238.3872C524.01493333 238.3872 524.01493333 238.3872 524.01493333 238.3872c-17.47626667 0-31.1296-14.19946667-31.1296-31.1296l0-46.96746667c0-17.47626667 14.19946667-31.1296 31.1296-31.1296 0 0 0 0 0 0 17.47626667 0 31.1296 14.19946667 31.1296 31.1296l0 46.96746667C555.14453333 224.18773333 540.94506667 238.3872 524.01493333 238.3872z" p-id="22018" fill="#515151"></path><path d="M524.01493333 894.83946667c-17.47626667 0-31.1296-14.19946667-31.1296-31.1296l0-46.96746667c0-17.47626667 14.19946667-31.1296 31.1296-31.1296 0 0 0 0 0 0 17.47626667 0 31.1296 14.19946667 31.1296 31.1296l0 46.96746667C555.14453333 880.64 540.94506667 894.83946667 524.01493333 894.83946667 524.01493333 894.83946667 524.01493333 894.83946667 524.01493333 894.83946667z" p-id="22019" fill="#515151"></path></svg>