<?xml version="1.0" standalone="no"?><!DOCTYPE svg PUBLIC "-//W3C//DTD SVG 1.1//EN" "http://www.w3.org/Graphics/SVG/1.1/DTD/svg11.dtd"><svg t="1726103037499" class="icon" viewBox="0 0 1024 1024" version="1.1" xmlns="http://www.w3.org/2000/svg" p-id="4243" xmlns:xlink="http://www.w3.org/1999/xlink" width="200" height="200"><path d="M440.32 572.416a49.92 49.92 0 1 0 99.584 0c0-185.856 46.08-245.504 190.208-245.504h35.84a49.92 49.92 0 0 0 71.168 69.888l73.728-73.984a64.512 64.512 0 0 0 0-91.392l-73.984-73.984a49.664 49.664 0 0 0-70.912 69.888h-35.84C529.664 227.328 440.32 332.8 440.32 572.416z" p-id="4244" fill="#515151"></path><path d="M972.8 460.8a51.2 51.2 0 0 0-51.2 51.2A410.88 410.88 0 1 1 512 102.4a51.2 51.2 0 1 0 0-102.4 512 512 0 1 0 512 512 51.2 51.2 0 0 0-51.2-51.2z" p-id="4245" fill="#515151"></path></svg>