<?xml version="1.0" standalone="no"?><!DOCTYPE svg PUBLIC "-//W3C//DTD SVG 1.1//EN" "http://www.w3.org/Graphics/SVG/1.1/DTD/svg11.dtd"><svg t="1726102702858" class="icon" viewBox="0 0 1024 1024" version="1.1" xmlns="http://www.w3.org/2000/svg" p-id="3244" xmlns:xlink="http://www.w3.org/1999/xlink" width="200" height="200"><path d="M975.104 356.096a48.896 48.896 0 0 0-48.896 48.64v443.136a76.8 76.8 0 0 1-76.8 76.8H175.616a76.8 76.8 0 0 1-76.8-76.8V404.736a48.896 48.896 0 0 0-97.792 0v443.136A175.872 175.872 0 0 0 175.616 1024h673.024A176.128 176.128 0 0 0 1024 847.872V404.736a48.896 48.896 0 0 0-48.896-48.64z" p-id="3245" fill="#515151"></path><path d="M386.56 748.8h246.016a51.2 51.2 0 0 1 51.2 41.472 48.896 48.896 0 0 1-48.384 56.064h-244.992a51.2 51.2 0 0 1-51.2-41.728 48.896 48.896 0 0 1 47.36-55.808zM547.328 4.352l204.8 234.752a12.8 12.8 0 0 1-9.728 21.248h-100.608a12.544 12.544 0 0 0-12.544 11.008c-7.68 54.528-53.248 296.192-269.056 332.8a13.056 13.056 0 0 1-10.496-22.784 272.896 272.896 0 0 0 99.072-184.832 1001.728 1001.728 0 0 0 7.424-122.624 13.312 13.312 0 0 0-12.8-13.056H332.8a12.8 12.8 0 0 1-9.728-21.248l204.8-234.496a12.8 12.8 0 0 1 19.456-0.768z" p-id="3246" fill="#515151"></path></svg>