<?xml version="1.0" standalone="no"?>
<!DOCTYPE svg PUBLIC "-//W3C//DTD SVG 1.1//EN" "http://www.w3.org/Graphics/SVG/1.1/DTD/svg11.dtd">
<svg t="1681710702358" class="icon" viewBox="0 0 1024 1024" version="1.1" xmlns="http://www.w3.org/2000/svg" p-id="2634" xmlns:xlink="http://www.w3.org/1999/xlink" width="200" height="200">
    <path d="M279.616 325.536v-76.48h201.12v-16h16c0-128.512-104.576-233.088-233.12-233.088S30.56 104.544 30.56 233.056c0 128.48 104.512 232.96 233.056 232.96v-16h16v-92.48m-32-322.304v73.28H109.44a196.512 196.512 0 0 1 138.176-73.28z m32 0a196.608 196.608 0 0 1 138.24 73.28h-138.24zM87.872 140.48h159.744v76.544H65.76a196.576 196.576 0 0 1 22.112-76.512z m191.744 0h159.808c12.352 23.36 19.84 48.832 22.144 76.544H279.616zM65.76 249.088h181.856v76.48H87.872a196.512 196.512 0 0 1-22.112-76.48z m43.68 108.48h138.176v73.312a196.608 196.608 0 0 1-138.176-73.28z" fill="#515151" p-id="2635"></path><path d="M174.112 24.96c-56.192 138.368-65.504 270.816-4.16 414.528l29.44-12.576C141.216 290.656 149.76 170.08 203.776 37.056L174.112 24.96z m177.376 0l-29.6 12.096c27.008 66.528 42.464 130.08 44.064 193.856l32-0.8c-1.728-68.416-18.336-135.936-46.464-205.12z" fill="#515151" p-id="2636"></path><path d="M263.616 217.056a16 16 0 0 0-16 16v774.912a16 16 0 0 0 16 16H1008a16 16 0 0 0 16-16V588.48a16 16 0 1 0-32 0V992H279.616V249.024H992v208a16 16 0 1 0 32 0v-224a16 16 0 0 0-16-16H263.616z m744.128 279.232a16 16 0 0 0-15.744 16.192V531.424a16 16 0 1 0 32 0V512.48a16 16 0 0 0-16.256-16.192z" fill="#515151" p-id="2637"></path><path d="M248.128 341.056v32h775.36v-32H248.128z" fill="#515151" p-id="2638"></path><path d="M341.184 295.04a15.52 15.488 0 0 1-15.52 15.488 15.52 15.488 0 0 1-15.488-15.52 15.52 15.488 0 0 1 15.488-15.488 15.52 15.488 0 0 1 15.52 15.488z m62.016 0a15.52 15.488 0 0 1-15.488 15.488 15.52 15.488 0 0 1-15.52-15.52 15.52 15.488 0 0 1 15.52-15.488 15.52 15.488 0 0 1 15.488 15.488z m62.048 0a15.52 15.488 0 0 1-15.52 15.488 15.52 15.488 0 0 1-15.488-15.52 15.52 15.488 0 0 1 15.488-15.488 15.52 15.488 0 0 1 15.52 15.488z" fill="#515151" p-id="2639">
    </path>
    <text x="450" y="850" font-size="512" fill="#515151">
        C
    </text>
</svg>