<?xml version="1.0" standalone="no"?><!DOCTYPE svg PUBLIC "-//W3C//DTD SVG 1.1//EN" "http://www.w3.org/Graphics/SVG/1.1/DTD/svg11.dtd"><svg t="1740362576275" class="icon" viewBox="0 0 1024 1024" version="1.1" xmlns="http://www.w3.org/2000/svg" p-id="2715" xmlns:xlink="http://www.w3.org/1999/xlink" width="200" height="200"><path d="M838.948571 964.242286a33.865143 33.865143 0 0 1-23.990857-9.947429L587.702857 726.674286a34.011429 34.011429 0 0 1 48.054857-48.128l203.190857 203.556571 35.474286-35.547428L671.744 643.657143a34.011429 34.011429 0 0 1 48.054857-48.128l226.742857 227.035428a34.011429 34.011429 0 0 1 0 48.128L863.085714 954.294857a34.011429 34.011429 0 0 1-24.064 9.947429zM591.213714 104.448a33.938286 33.938286 0 0 0 1.901715-13.385143v-0.146286a33.645714 33.645714 0 0 0-3.291429-12.507428c-0.365714-0.731429-0.950857-1.316571-1.389714-2.048A32.109714 32.109714 0 0 0 582.217143 68.022857c-1.024-0.877714-2.194286-1.462857-3.364572-2.194286C576.877714 64.365714 575.049143 62.683429 572.708571 61.659429l-2.048-0.731429h-0.073142a317.293714 317.293714 0 0 0-348.745143 71.021714c-0.804571 0.804571-1.170286 1.901714-1.901715 2.852572-0.877714 0.731429-1.974857 1.024-2.779428 1.901714L46.445714 308.662857a34.377143 34.377143 0 0 0 0 48.347429l103.570286 104.886857a33.499429 33.499429 0 0 0 47.689143 0l59.026286-59.757714 71.826285 72.704a33.426286 33.426286 0 0 0 47.689143 0 34.377143 34.377143 0 0 0 0-48.274286L280.502857 329.874286a33.353143 33.353143 0 0 0-47.616 0l-59.026286 59.757714-55.808-56.539429L264.704 185.051429c0.877714-0.877714 1.170286-2.048 1.974857-2.925715 0.877714-0.731429 1.974857-1.097143 2.852572-1.974857A251.611429 251.611429 0 0 1 422.034286 106.788571l-6.875429 5.485715a260.388571 260.388571 0 0 0-27.062857 23.552c-0.585143 0.585143-0.731429 1.316571-1.243429 1.901714a339.163429 339.163429 0 0 0-59.611428 82.432l0.438857 0.219429c-12.946286 26.331429-12.946286 57.197714 0.512 83.382857 1.609143 3.072 3.657143 5.851429 6.070857 8.192 0.731429 1.024 1.097143 2.267429 2.048 3.218285l74.24 75.117715a33.426286 33.426286 0 0 0 47.616 0 34.377143 34.377143 0 0 0 0-48.274286L387.657143 270.482286a23.625143 23.625143 0 0 1 0.512-20.187429l0.219428-0.950857a270.921143 270.921143 0 0 1 46.811429-64c4.388571-4.388571 9.142857-8.192 13.677714-12.214857a191.049143 191.049143 0 0 1 112.566857-46.08c0.585143 0 1.097143-0.365714 1.682286-0.365714a33.426286 33.426286 0 0 0 10.971429-2.925715c0.512-0.292571 0.877714-0.731429 1.462857-0.950857a32.768 32.768 0 0 0 8.923428-6.948571c0.292571-0.292571 0.438857-0.731429 0.658286-0.950857a33.426286 33.426286 0 0 0 5.705143-8.630858c0.292571-0.585143 0.219429-1.243429 0.438857-1.828571zM272.896 987.428571a208.457143 208.457143 0 0 1-87.990857-19.602285 34.157714 34.157714 0 0 1-9.581714-54.930286l93.769142-93.842286-35.181714-35.108571-93.257143 93.110857a33.938286 33.938286 0 0 1-55.149714-10.093714 205.750857 205.750857 0 0 1 41.545143-229.010286 206.848 206.848 0 0 1 206.555428-50.102857l254.244572-254.171429a205.824 205.824 0 0 1 50.102857-206.482285 202.605714 202.605714 0 0 1 144.310857-59.684572c29.037714 0 58.368 6.290286 84.845714 18.212572a33.938286 33.938286 0 0 1 10.020572 55.149714L782.628571 235.373714l35.181715 35.254857 95.232-95.158857a34.011429 34.011429 0 0 1 54.857143 9.508572 205.238857 205.238857 0 0 1-39.936 232.082285 202.459429 202.459429 0 0 1-144.091429 59.611429c-22.089143 0-44.251429-3.657143-65.170286-10.605714L465.92 718.555429c24.137143 72.923429 5.851429 154.404571-49.005714 209.261714a202.386286 202.386286 0 0 1-144.091429 59.611428z m-6.144-69.778285a133.997714 133.997714 0 0 0 102.912-39.277715c40.228571-40.228571 50.834286-102.253714 26.331429-154.331428a33.865143 33.865143 0 0 1 6.729142-38.4l283.062858-283.062857A34.011429 34.011429 0 0 1 724.114286 395.702857a138.459429 138.459429 0 0 0 154.258285-26.331428c27.501714-27.501714 41.106286-65.170286 39.204572-102.912l-76.946286 77.019428a33.865143 33.865143 0 0 1-47.981714 0L709.705143 260.388571a33.938286 33.938286 0 0 1 0-47.981714l75.337143-75.337143a135.168 135.168 0 0 0-99.401143 39.497143A135.168 135.168 0 0 0 658.285714 328.923429a34.011429 34.011429 0 0 1-6.948571 38.034285L367.030857 651.117714a34.157714 34.157714 0 0 1-37.888 6.948572 138.386286 138.386286 0 0 0-152.356571 27.428571 134.582857 134.582857 0 0 0-39.643429 99.620572L211.309714 710.948571a33.865143 33.865143 0 0 1 47.981715 0l83.090285 83.090286a33.865143 33.865143 0 0 1 0 47.981714l-75.629714 75.629715z" fill="#1296db" p-id="2716"></path></svg>