<?xml version="1.0" standalone="no"?><!DOCTYPE svg PUBLIC "-//W3C//DTD SVG 1.1//EN" "http://www.w3.org/Graphics/SVG/1.1/DTD/svg11.dtd"><svg t="1651739584793" class="icon" viewBox="0 0 1025 1024" version="1.1" xmlns="http://www.w3.org/2000/svg" p-id="4959" width="128.125" height="128" xmlns:xlink="http://www.w3.org/1999/xlink"><defs><style type="text/css"></style></defs><path d="M1024.999766 343.865677c0 190.125732-155.339321 344.665365-345.465053 343.865678-24.290512-0.099961-47.981257-2.698946-70.772355-7.597032-21.091761-4.498243-43.083171 2.09918-58.377196 17.393205L270.094651 977.81804c-30.787973 30.787973-71.37212 46.18196-111.956268 46.18196s-81.168294-15.393987-111.956267-46.18196-46.18196-71.37212-46.18196-111.956267c0-40.584147 15.393987-81.168294 46.18196-111.956267l280.990239-280.990239c15.194065-15.194065 21.791488-37.085513 17.393205-58.077313-4.798126-22.791097-7.29715-46.481843-7.297149-70.672394C337.068489 154.539633 491.508161 0 681.134088 0c24.790316 0 48.980867 2.598985 72.37173 7.597032 6.197579 1.299492 12.395158 2.798907 18.492776 4.498243 23.590785 6.497462 31.387739 36.085904 14.094495 53.47911l-13.59469 13.59469-159.237798 159.137836c-22.991019 22.991019-35.68606 53.778993-35.68606 86.766107 0 32.887153 12.695041 63.675127 35.68606 86.666146 22.991019 22.991019 53.778993 35.68606 86.666146 35.686061 32.887153 0 63.675127-12.695041 86.766107-35.686061L959.425381 238.906677c17.293245-17.293245 46.981648-9.596251 53.479109 14.094494 1.699336 6.097618 3.19875 12.295197 4.498243 18.492777 4.998048 23.390863 7.597032 47.581414 7.597033 72.371729z" p-id="4960" fill="#515151"></path></svg>