<?xml version="1.0" standalone="no"?><!DOCTYPE svg PUBLIC "-//W3C//DTD SVG 1.1//EN" "http://www.w3.org/Graphics/SVG/1.1/DTD/svg11.dtd"><svg t="1750068146965" class="icon" viewBox="0 0 1024 1024" version="1.1" xmlns="http://www.w3.org/2000/svg" p-id="28170" xmlns:xlink="http://www.w3.org/1999/xlink" width="200" height="200"><path d="M726.230046 393.060741s-16.462831-140.445857-168.680038-144.369641c-152.259857-3.881134-230.394328 105.345055-230.394328 261.443397 0 156.098341 86.408535 280.977014 234.48871 280.977014 148.122825 0 164.628305-156.098341 164.628306-156.098341l283.877201 15.609834s16.67608 141.000305-102.103669 248.563151C789.22383 1006.749001 643.446745 1024.320727 541.598975 1023.59568c-101.84777-0.767697-243.018674 1.450094-379.583398-126.627316C25.578803 768.976254 2.334651 644.566729 2.334651 522.374995c0-122.234384 25.888441-284.090451 188.256306-406.879282C300.883391 32.157964 412.753869 1.407444 524.624347 1.407444 991.639876 1.364794 1022.944843 395.790329 1022.944843 395.790329z" p-id="28171" fill="#1296db"></path></svg>