<?xml version="1.0" standalone="no"?><!DOCTYPE svg PUBLIC "-//W3C//DTD SVG 1.1//EN" "http://www.w3.org/Graphics/SVG/1.1/DTD/svg11.dtd"><svg t="1750070706287" class="icon" viewBox="0 0 1024 1024" version="1.1" xmlns="http://www.w3.org/2000/svg" p-id="13226" xmlns:xlink="http://www.w3.org/1999/xlink" width="200" height="200"><path d="M232.727273 232.727273H93.090909v93.090909h139.636364v139.636363h93.090909v-139.636363h139.636363v-93.090909h-139.636363V93.090909h-93.090909v139.636364zM0 0h1024v1024H0V0z m558.545455 232.727273v93.090909h372.363636v-93.090909H558.545455z m0 465.454545v93.090909h372.363636v-93.090909H558.545455z m186.181818-46.545454a46.545455 46.545455 0 1 0 0-93.090909 46.545455 46.545455 0 0 0 0 93.090909z m0 279.272727a46.545455 46.545455 0 1 0 0-93.090909 46.545455 46.545455 0 0 0 0 93.090909zM279.272727 678.912l-98.746182-98.746182-65.815272 65.815273L213.457455 744.727273l-98.746182 98.746182 65.815272 65.815272L279.272727 810.542545l98.746182 98.746182 65.815273-65.815272L345.088 744.727273l98.746182-98.746182-65.815273-65.815273L279.272727 678.912z" fill="#1296db" p-id="13227"></path></svg>