<?xml version="1.0" standalone="no"?><!DOCTYPE svg PUBLIC "-//W3C//DTD SVG 1.1//EN" "http://www.w3.org/Graphics/SVG/1.1/DTD/svg11.dtd"><svg t="1706012152532" class="icon" viewBox="0 0 1024 1024" version="1.1" xmlns="http://www.w3.org/2000/svg" p-id="20825" xmlns:xlink="http://www.w3.org/1999/xlink" width="200" height="200"><path d="M797 349H666c-19.9 0-36-16.1-36-36s16.1-36 36-36h131c19.9 0 36 16.1 36 36s-16.1 36-36 36zM797 501H666c-19.9 0-36-16.1-36-36s16.1-36 36-36h131c19.9 0 36 16.1 36 36s-16.1 36-36 36zM797 652H666c-19.9 0-36-16.1-36-36s16.1-36 36-36h131c19.9 0 36 16.1 36 36s-16.1 36-36 36zM797 804H229c-19.9 0-36-16.1-36-36s16.1-36 36-36h568c19.9 0 36 16.1 36 36s-16.1 36-36 36zM454.1 310.1v281.2c-3.2 33.6 14.4 48.9 52.9 45.7h14.4v24H300.3v-24H322c32 1.6 48.1-13.6 48.1-45.7V310.1h-74.5c-40.1-8-61.7 16-64.9 72.1h-26.4l12-115.4h19.2c3.2 4.8 7.2 8 12 9.6 3.2 3.2 8.8 4 16.8 2.4h293.2c11.2 1.6 20.8-2.4 28.8-12h21.6l9.6 115.4h-24c-4.8-56.1-27.3-80.1-67.3-72.1h-72.1z" p-id="20826" fill="#515151"></path></svg>