<?xml version="1.0" standalone="no"?><!DOCTYPE svg PUBLIC "-//W3C//DTD SVG 1.1//EN" "http://www.w3.org/Graphics/SVG/1.1/DTD/svg11.dtd"><svg t="1706010060676" class="icon" viewBox="0 0 1024 1024" version="1.1" xmlns="http://www.w3.org/2000/svg" p-id="10551" xmlns:xlink="http://www.w3.org/1999/xlink" width="200" height="200"><path d="M491.287273 915.316364c-224.581818 0-407.272727-182.690909-407.272728-407.272728 0-156.392727 87.272727-296.494545 227.607273-365.614545 11.403636-5.585455 25.367273-0.930909 31.185455 10.705454 5.585455 11.636364 0.930909 25.367273-10.705455 31.185455-124.276364 61.207273-201.541818 185.250909-201.541818 323.723636 0 198.981818 161.745455 360.727273 360.727273 360.727273s360.727273-161.745455 360.727272-360.727273-161.745455-360.727273-360.727272-360.727272c-12.8 0-23.272727-10.472727-23.272728-23.272728s10.472727-23.272727 23.272728-23.272727c224.581818 0 407.272727 182.690909 407.272727 407.272727s-182.690909 407.272727-407.272727 407.272728z" fill="#515151" p-id="10552"></path><path d="M491.287273 531.316364c-12.8 0-23.272727-10.472727-23.272728-23.272728l-0.232727-279.272727c0-12.8 10.472727-23.272727 23.272727-23.272727s23.272727 10.472727 23.272728 23.272727l0.232727 279.272727c0 12.8-10.472727 23.272727-23.272727 23.272728z" fill="#515151" p-id="10553"></path><path d="M688.407273 531.316364h-197.12c-12.8 0-23.272727-10.472727-23.272728-23.272728s10.472727-23.272727 23.272728-23.272727h197.12c12.8 0 23.272727 10.472727 23.272727 23.272727s-10.472727 23.272727-23.272727 23.272728z" fill="#515151" p-id="10554"></path></svg>