<?xml version="1.0" standalone="no"?><!DOCTYPE svg PUBLIC "-//W3C//DTD SVG 1.1//EN" "http://www.w3.org/Graphics/SVG/1.1/DTD/svg11.dtd"><svg t="1724218588896" class="icon" viewBox="0 0 1024 1024" version="1.1" xmlns="http://www.w3.org/2000/svg" p-id="7573" xmlns:xlink="http://www.w3.org/1999/xlink" width="200" height="200"><path d="M512.17 97.29h-0.23C282.91 97.29 97.23 283 97.23 512s185.68 414.71 414.71 414.71c229 0.06 414.76-185.56 414.83-414.6S741.21 97.36 512.17 97.29z m-0.23 760.3c-190.86 0-345.59-154.73-345.59-345.59s154.73-345.59 345.59-345.59S857.53 321.14 857.53 512 702.81 857.59 511.94 857.59z" fill="#66EEFF" p-id="7574"></path><path d="M656.4 379.83L465.07 571.16l-96.78-96.73a36.2 36.2 0 1 0-51.87 50.52c0.21 0.22 0.43 0.44 0.65 0.65L432.43 641a46.08 46.08 0 0 0 65.2 0l209.99-210a36.21 36.21 0 0 0-51.22-51.18z" fill="#66EEFF" p-id="7575"></path></svg>