<?xml version="1.0" standalone="no"?><!DOCTYPE svg PUBLIC "-//W3C//DTD SVG 1.1//EN" "http://www.w3.org/Graphics/SVG/1.1/DTD/svg11.dtd"><svg t="1728905792704" class="icon" viewBox="0 0 1024 1024" version="1.1" xmlns="http://www.w3.org/2000/svg" p-id="5378" xmlns:xlink="http://www.w3.org/1999/xlink" width="200" height="200"><path d="M896.6 810.7H179.8c-4.7 0-8.5-3.8-8.5-8.5V675.6L368.5 413c1.9-2.5 4.4-3.2 6.1-3.4 1.9-0.2 4.3 0.1 6.6 2.3l141 135c18.4 17.6 43.7 27.2 69 26 25.5-1.1 49.7-12.8 66.4-31.9l271-309c15.5-17.7 13.8-44.7-4-60.2-17.8-15.6-44.7-13.8-60.2 4l-271 309c-2 2.2-4.4 2.8-6 2.9-1.8 0.2-4.1-0.3-6.3-2.4l-141-135c-19.4-18.5-46-27.9-72.6-25.8-26.7 2.2-51.3 15.8-67.4 37.2l-129 171.8V170.7c0-23.6-19.1-42.7-42.7-42.7s-42.7 19.1-42.7 42.7v631.5c0 51.8 42.1 93.9 93.9 93.9h716.8c23.6 0 42.7-19.1 42.7-42.7s-19-42.7-42.5-42.7z" fill="#1296db" p-id="5379"></path></svg>