<?xml version="1.0" standalone="no"?><!DOCTYPE svg PUBLIC "-//W3C//DTD SVG 1.1//EN" "http://www.w3.org/Graphics/SVG/1.1/DTD/svg11.dtd"><svg t="1728905774797" class="icon" viewBox="0 0 1024 1024" version="1.1" xmlns="http://www.w3.org/2000/svg" p-id="4312" xmlns:xlink="http://www.w3.org/1999/xlink" width="200" height="200"><path d="M970.418605 815.627907H83.348837V178.604651c0-16.669767-13.097674-29.767442-29.767442-29.767442S23.813953 163.125581 23.813953 178.604651v695.367442h946.604652c16.669767 0 29.767442-13.097674 29.767442-29.767442s-13.097674-28.576744-29.767442-28.576744z" fill="#1296db" p-id="4313"></path><path d="M160.744186 750.139535c8.334884 0 16.669767-3.572093 22.623256-10.716279l177.413953-210.753489 188.130233 58.344186 358.4-320.297674c11.906977-10.716279 13.097674-29.767442 2.381395-41.674419s-29.767442-13.097674-41.674418-2.381395l-333.395349 297.674419-192.893023-60.725582-203.609303 241.711628c-10.716279 13.097674-9.525581 30.95814 3.572093 41.674419 5.953488 4.762791 11.906977 7.144186 19.051163 7.144186z" fill="#1296db" p-id="4314"></path></svg>