<?xml version="1.0" standalone="no"?><!DOCTYPE svg PUBLIC "-//W3C//DTD SVG 1.1//EN" "http://www.w3.org/Graphics/SVG/1.1/DTD/svg11.dtd"><svg t="1711500184984" class="icon" viewBox="0 0 1024 1024" version="1.1" xmlns="http://www.w3.org/2000/svg" p-id="4410" xmlns:xlink="http://www.w3.org/1999/xlink" width="200" height="200"><path d="M298.4 432.3c0-22.7-19.1-41.8-41.7-41.8-23 0-41.7 18.8-41.7 41.8 0 23.1 18.7 41.9 41.7 41.9 22.6-0.1 41.7-19.2 41.7-41.9zM425.6 432.3c0-22.7-19.1-41.8-41.7-41.8-23 0-41.7 18.8-41.7 41.8 0 23.1 18.7 41.9 41.7 41.9 22.6-0.1 41.7-19.2 41.7-41.9zM552.8 432.3c0-22.7-19.1-41.8-41.7-41.8-23 0-41.7 18.8-41.7 41.8 0 23.1 18.7 41.9 41.7 41.9 22.6-0.1 41.7-19.2 41.7-41.9zM680 432.3c0-22.7-19.1-41.8-41.7-41.8-23 0-41.7 18.8-41.7 41.8 0 23.1 18.7 41.9 41.7 41.9 22.6-0.1 41.7-19.2 41.7-41.9zM765.5 390.4c-23 0-41.7 18.8-41.7 41.8 0 23.1 18.7 41.9 41.7 41.9 22.6 0 41.7-19.2 41.7-41.9 0.1-22.6-19.1-41.8-41.7-41.8zM320.3 540.6c-23 0-41.7 18.8-41.7 41.8 0 23.1 18.7 41.9 41.7 41.9 22.6 0 41.7-19.2 41.7-41.9s-19.1-41.8-41.7-41.8zM447.5 540.6c-23 0-41.7 18.8-41.7 41.8 0 23.1 18.7 41.9 41.7 41.9 22.6 0 41.7-19.2 41.7-41.9s-19.1-41.8-41.7-41.8zM574.7 540.6c-23 0-41.7 18.8-41.7 41.8 0 23.1 18.7 41.9 41.7 41.9 22.6 0 41.7-19.2 41.7-41.9s-19.1-41.8-41.7-41.8zM701.9 540.6c-23 0-41.7 18.8-41.7 41.8 0 23.1 18.7 41.9 41.7 41.9 22.6 0 41.7-19.2 41.7-41.9s-19.1-41.8-41.7-41.8z" p-id="4411" fill="#515151"></path><path d="M951.1 305.9c-24.2-31.3-60-49.3-98.1-49.3H171c-38.3 0-74.1 18.1-98.3 49.6-24.2 31.5-33.7 72.4-26.1 112.3l45.5 231.1C105.5 720 163.3 767.3 236 767.3h538.6c71.7 0 130.9-48.2 143.8-117.3v-0.2l59.1-231.6 0.1-0.6c7.3-39.7-2.3-80.4-26.5-111.7z m-10.9 102.7v0.2l-59.1 231.6-0.1 0.6c-9.5 51.2-52.3 85.6-106.4 85.6H236c-53.9 0-96.6-34.2-106.3-85.1L84.2 410.4c-5.3-27.8 1.3-56.4 18.2-78.3 16.9-22 41.9-34.6 68.6-34.6h682c26.6 0 51.6 12.5 68.5 34.4 16.8 21.7 23.6 49.6 18.7 76.7z" p-id="4412" fill="#515151"></path></svg>