<?xml version="1.0" standalone="no"?><!DOCTYPE svg PUBLIC "-//W3C//DTD SVG 1.1//EN" "http://www.w3.org/Graphics/SVG/1.1/DTD/svg11.dtd"><svg t="1728693895499" class="icon" viewBox="0 0 1024 1024" version="1.1" xmlns="http://www.w3.org/2000/svg" p-id="4263" xmlns:xlink="http://www.w3.org/1999/xlink" width="200" height="200"><path d="M202.656 192a53.344 53.344 0 1 1 106.688 0 53.344 53.344 0 0 1-106.688 0zM256 74.656a117.344 117.344 0 1 0 86.784 196.32l310.048 154.464a117.344 117.344 0 1 0 28.992-57.088l-310.496-154.688A117.344 117.344 0 0 0 256 74.624zM714.656 448a53.344 53.344 0 1 1 106.688 0 53.344 53.344 0 0 1-106.688 0zM213.344 405.344c0-23.552 19.104-42.656 42.656-42.656h0.384a42.656 42.656 0 0 1 0 85.312H256a42.656 42.656 0 0 1-42.656-42.656z m0 128c0-23.552 19.104-42.656 42.656-42.656h0.384a42.656 42.656 0 0 1 0 85.312H256a42.656 42.656 0 0 1-42.656-42.656z m0 128c0-23.552 19.104-42.656 42.656-42.656h0.384a42.656 42.656 0 0 1 0 85.312H256a42.656 42.656 0 0 1-42.656-42.656z m0 128c0-23.552 19.104-42.656 42.656-42.656h0.384a42.656 42.656 0 0 1 0 85.312H256a42.656 42.656 0 0 1-42.656-42.656zM768 618.656a42.656 42.656 0 0 0 0 85.312h0.384a42.656 42.656 0 0 0 0-85.312H768z m0 128a42.656 42.656 0 0 0 0 85.312h0.384a42.656 42.656 0 0 0 0-85.312H768zM85.344 885.344a32 32 0 0 0 0 64h853.344a32 32 0 0 0 0-64H85.344z" p-id="4264" fill="#515151"></path></svg>