<?xml version="1.0" standalone="no"?><!DOCTYPE svg PUBLIC "-//W3C//DTD SVG 1.1//EN" "http://www.w3.org/Graphics/SVG/1.1/DTD/svg11.dtd"><svg t="1772698250841" class="icon" viewBox="0 0 1024 1024" version="1.1" xmlns="http://www.w3.org/2000/svg" p-id="4653" xmlns:xlink="http://www.w3.org/1999/xlink" width="200" height="200"><path d="M648 276l-84-80 4 116c-2.667 29.333 0 57.333 8 84s19.333 50.667 34 72c14.667 21.333 30 40 46 56l52 56c18.667 18.667 36 38.667 52 60s31.333 44 46 68 25.333 52 32 84 10 65.333 10 100v68H744v-68c0-34.667-4.667-64.667-14-90s-22-49.333-38-72-33.333-43.333-52-62l-56-60c-18.667-21.333-36.667-43.333-54-66s-31.333-48.667-42-78l-16-48-8-44c-2.667-13.333-4-26.667-4-40V196l-84 80-52-52L484 64h56l160 160-52 52zM384 668c-18.667 18.667-36 39.333-52 62s-28.667 46.667-38 72-14 55.333-14 90v68H176v-68c0-34.667 3.333-68 10-100s17.333-60.667 32-86 30-48 46-68 33.333-39.333 52-58l52-56c16-16 30.667-33.333 44-52l8 20c10.667 32 25.333 61.333 44 88-8 8-16 17.333-24 28l-56 60z" p-id="4654" fill="#1296db"></path></svg>