<?xml version="1.0" standalone="no"?><!DOCTYPE svg PUBLIC "-//W3C//DTD SVG 1.1//EN" "http://www.w3.org/Graphics/SVG/1.1/DTD/svg11.dtd"><svg t="1749808187240" class="icon" viewBox="0 0 1024 1024" version="1.1" xmlns="http://www.w3.org/2000/svg" p-id="4287" xmlns:xlink="http://www.w3.org/1999/xlink" width="200" height="200"><path d="M914.773333 884.053333L827.733333 797.013333c21.333333-29.866667 33.28-64.853333 33.28-101.546666 0-95.573333-77.653333-173.226667-173.226666-173.226667-95.573333 0-173.226667 77.653333-173.226667 173.226667 0 95.573333 77.653333 173.226667 173.226667 173.226666 36.693333 0 71.68-11.093333 101.546666-33.28l87.04 87.04c3.413333 3.413333 7.68 5.12 11.946667 5.12 4.266667 0 9.386667-1.706667 11.946667-5.12l14.506666-14.506666c6.826667-5.973333 6.826667-17.066667 0-23.893334zM825.173333 695.466667c0 30.72-10.24 59.733333-28.16 83.626666L785.92 793.6l-14.506667 11.093333c-23.893333 18.773333-52.906667 28.16-83.626666 28.16-75.946667 0-138.24-61.44-138.24-138.24s61.44-138.24 138.24-138.24 137.386667 63.146667 137.386666 139.093334z" fill="#1296db" p-id="4288"></path><path d="M591.36 960H210.773333l-4.266666-1.706667c-66.56-23.893333-102.4-71.68-102.4-140.8 0-29.013333 0-232.106667 1.706666-619.52 3.413333-95.573333 59.733333-125.44 105.813334-133.973333H793.6c75.946667 7.68 116.906667 55.466667 115.2 133.973333 1.706667 48.64 1.706667 131.413333-1.706667 248.32 0 6.826667-3.413333 13.653333-7.68 17.92s-11.093333 6.826667-17.92 6.826667-13.653333-3.413333-17.92-7.68c-4.266667-5.12-6.826667-11.093333-6.826666-17.92 3.413333-116.053333 3.413333-198.826667 1.706666-245.76v-1.706667c1.706667-52.053333-18.773333-76.8-67.413333-81.92H217.6c-27.306667 5.12-58.88 20.48-61.44 83.626667-0.853333 380.586667-0.853333 588.8-0.853333 617.813333 0 45.226667 21.333333 74.24 64 91.306667h371.2c14.506667 0 25.6 11.093333 25.6 25.6s-11.093333 25.6-25.6 25.6h0.853333z m0 0" fill="#1296db" p-id="4289"></path><path d="M718.506667 314.026667h-435.2c-14.506667 0-25.6-11.093333-25.6-25.6s11.093333-25.6 25.6-25.6h435.2c14.506667 0 25.6 11.093333 25.6 25.6 0 13.653333-11.946667 25.6-25.6 25.6z m0 0M283.306667 506.026667c-14.506667 0-25.6-11.093333-25.6-25.6s11.093333-25.6 25.6-25.6l217.6-0.853334c14.506667 0 25.6 11.093333 25.6 25.6s-11.093333 25.6-25.6 25.6l-217.6 0.853334z m0 0" fill="#1296db" p-id="4290"></path></svg>