<?xml version="1.0" standalone="no"?><!DOCTYPE svg PUBLIC "-//W3C//DTD SVG 1.1//EN" "http://www.w3.org/Graphics/SVG/1.1/DTD/svg11.dtd"><svg t="1706060168998" class="icon" viewBox="0 0 1024 1024" version="1.1" xmlns="http://www.w3.org/2000/svg" p-id="25016" xmlns:xlink="http://www.w3.org/1999/xlink" width="200" height="200"><path d="M975.36 489.984c0.512-53.248-42.496-96.768-95.744-97.28h-227.84V200.192c0.512-65.536-52.736-119.296-118.272-119.808H501.76c-65.536 0.512-118.784 54.272-118.272 119.808v192.512H151.04c-53.76 0.512-96.256 44.544-95.744 98.304 0.512 41.984 28.16 78.848 68.096 91.648v339.456c-0.512 43.008 34.304 77.824 77.312 78.336h635.392c43.008-0.512 77.312-35.328 77.312-78.336v-341.504c37.376-14.336 61.952-50.688 61.952-90.624z m-532.48-289.792c0-32.768 26.112-59.392 58.88-59.392h31.744c32.768 0.512 58.88 27.136 58.88 59.392v192.512H442.88V200.192z m393.216 739.84h-97.792v-123.392c0.512-16.384-12.288-30.208-28.672-30.72-16.384-0.512-30.208 12.288-30.72 28.672v125.44h-130.56v-123.392c0-16.384-13.312-29.696-29.696-29.696-16.384 0-29.696 13.312-29.696 29.696v123.392H358.4v-123.392c0-16.384-13.312-29.696-29.696-29.696-16.384 0-29.696 13.312-29.696 29.696v123.392H200.704c-9.728 0-17.92-8.192-17.92-17.92v-334.848h671.232v334.848c0 9.728-8.192 17.92-17.92 17.92z m43.52-413.184H151.04c-20.48 0-36.864-16.896-36.864-37.376s16.384-36.864 36.864-36.864h728.576c20.48 0 36.864 16.896 36.864 37.376s-16.384 36.864-36.864 36.864z" p-id="25017" fill="#515151"></path></svg>