<?xml version="1.0" standalone="no"?><!DOCTYPE svg PUBLIC "-//W3C//DTD SVG 1.1//EN" "http://www.w3.org/Graphics/SVG/1.1/DTD/svg11.dtd"><svg t="1706059328712" class="icon" viewBox="0 0 1024 1024" version="1.1" xmlns="http://www.w3.org/2000/svg" p-id="11956" xmlns:xlink="http://www.w3.org/1999/xlink" width="200" height="200"><path d="M744.727505 744.727273h186.181819V465.454545a46.545455 46.545455 0 0 1 93.090909 0v325.818182a46.545455 46.545455 0 0 1-46.545455 46.545455H744.727505v-93.090909zM0.000233 139.636364c0-25.716364 20.922182-46.545455 46.661818-46.545455h930.676364C1003.101324 93.090909 1024.000233 113.757091 1024.000233 139.636364c0 25.716364-20.922182 46.545455-46.661818 46.545454H46.662051A46.498909 46.498909 0 0 1 0.000233 139.636364z m0 325.818181c0-25.716364 20.712727-46.545455 46.592-46.545454h651.543272c25.739636 0 46.592 20.666182 46.592 46.545454 0 25.716364-20.712727 46.545455-46.592 46.545455H46.592233A46.452364 46.452364 0 0 1 0.000233 465.454545z m0 325.818182c0-25.716364 20.782545-46.545455 46.429091-46.545454h326.050909c25.646545 0 46.429091 20.666182 46.429091 46.545454 0 25.716364-20.782545 46.545455-46.429091 46.545455H46.429324A46.382545 46.382545 0 0 1 0.000233 791.272727z m558.545454 0c0-26.158545 23.272727-41.890909 23.272728-41.890909s124.672-97.745455 135.912727-97.745454c29.835636 0 26.996364 23.272727 26.996363 23.272727v232.680727c0 21.783273-16.756364 23.319273-27.554909 23.319273C706.397324 930.909091 581.818415 833.163636 581.818415 833.163636s-23.272727-15.732364-23.272728-41.890909z" fill="#515151" p-id="11957"></path></svg>