<?xml version="1.0" standalone="no"?><!DOCTYPE svg PUBLIC "-//W3C//DTD SVG 1.1//EN" "http://www.w3.org/Graphics/SVG/1.1/DTD/svg11.dtd"><svg t="1706013723709" class="icon" viewBox="0 0 1024 1024" version="1.1" xmlns="http://www.w3.org/2000/svg" p-id="25660" xmlns:xlink="http://www.w3.org/1999/xlink" width="200" height="200"><path d="M540 701.6l-17.6-17.6-40.8-40.8-49.6-49.6-42.4-42.4-19.2-19.2-4.8-4.8c1.6 1.6 2.4 3.2 4 4.8-3.2-4-5.6-8-7.2-12l2.4 5.6c-1.6-4.8-3.2-8.8-4-13.6 0 2.4 0.8 4.8 0.8 6.4-0.8-4.8-0.8-9.6 0-14.4 0 2.4-0.8 4.8-0.8 6.4 0.8-4.8 1.6-9.6 4-13.6l-1.6 7.2c1.6-4 4-8 7.2-12-1.6 1.6-2.4 3.2-4 4.8 2.4-3.2 5.6-5.6 8-8.8l12-12 40-40 49.6-49.6 43.2-43.2c7.2-7.2 14.4-13.6 20.8-20.8 4.8-4.8 7.2-11.2 7.2-17.6 0-6.4-2.4-13.6-7.2-17.6-4.8-4-11.2-8-17.6-7.2-6.4 0-12.8 2.4-17.6 7.2l-20 20-45.6 45.6-52.8 52.8-40 40-10.4 9.6c-10.4 10.4-18.4 23.2-21.6 37.6-3.2 12.8-3.2 25.6 0 38.4 3.2 12.8 9.6 24 18.4 33.6l7.2 7.2 34.4 34.4 51.2 51.2 49.6 49.6 28 28 1.6 1.6c4.8 4.8 11.2 7.2 17.6 7.2 6.4 0 13.6-2.4 17.6-7.2 4-4.8 8-11.2 7.2-17.6 0-6.4-2.4-12.8-7.2-17.6z" fill="#515151" p-id="25661"></path><path d="M704 701.6l-17.6-17.6-40.8-40.8-49.6-49.6-42.4-42.4-19.2-19.2-4.8-4.8c1.6 1.6 2.4 3.2 4 4.8-3.2-4-5.6-8-7.2-12l2.4 5.6c-1.6-4.8-3.2-8.8-4-13.6 0 2.4 0.8 4.8 0.8 6.4-0.8-4.8-0.8-9.6 0-14.4 0 2.4-0.8 4.8-0.8 6.4 0.8-4.8 1.6-9.6 4-13.6l-1.6 7.2c1.6-4 4-8 7.2-12-1.6 1.6-2.4 3.2-4 4.8 2.4-3.2 5.6-5.6 8-8.8l12-12 40-40 49.6-49.6 43.2-43.2c7.2-7.2 14.4-13.6 20.8-20.8 4.8-4.8 7.2-11.2 7.2-17.6 0-6.4-2.4-13.6-7.2-17.6-4.8-4-11.2-8-17.6-7.2-6.4 0-12.8 2.4-17.6 7.2l-20 20-45.6 45.6-52.8 52.8-40 40-9.6 9.6c-10.4 10.4-18.4 23.2-21.6 37.6-3.2 12.8-3.2 25.6 0 38.4 3.2 12.8 9.6 24 18.4 33.6l7.2 7.2 34.4 34.4 51.2 51.2 49.6 49.6 28 28 1.6 1.6c4.8 4.8 11.2 7.2 17.6 7.2 6.4 0 13.6-2.4 17.6-7.2 4-4.8 8-11.2 7.2-17.6-0.8-6.4-3.2-12.8-8-17.6z" fill="#515151" p-id="25662"></path></svg>