<?xml version="1.0" standalone="no"?><!DOCTYPE svg PUBLIC "-//W3C//DTD SVG 1.1//EN" "http://www.w3.org/Graphics/SVG/1.1/DTD/svg11.dtd"><svg t="1680912560707" class="icon" viewBox="0 0 1024 1024" version="1.1" xmlns="http://www.w3.org/2000/svg" p-id="2649" xmlns:xlink="http://www.w3.org/1999/xlink" width="200" height="200"><path d="M17.92 61.44h834.56c8.704 0 15.36-7.168 15.36-15.36 0-8.704-6.656-15.36-15.36-15.36H17.92c-8.192 0-15.36 6.656-15.36 15.36 0 8.192 7.168 15.36 15.36 15.36zM17.92 349.696h337.92c8.704 0 15.36-6.656 15.36-15.36s-6.656-15.36-15.36-15.36h-337.92c-8.192 0-15.36 6.656-15.36 15.36s7.168 15.36 15.36 15.36zM17.92 638.464h250.88c8.704 0 15.36-6.656 15.36-15.36 0-8.192-6.656-15.36-15.36-15.36h-250.88c-8.192 0-15.36 7.168-15.36 15.36s7.168 15.36 15.36 15.36zM294.4 896h-276.48c-8.192 0-15.36 6.656-15.36 15.36 0 8.192 7.168 15.36 15.36 15.36h276.48c8.704 0 15.36-7.168 15.36-15.36 0-8.704-6.656-15.36-15.36-15.36zM680.96 312.32c-187.904 0-340.48 152.576-340.48 340.48S493.056 993.28 680.96 993.28s340.48-152.576 340.48-340.48S868.864 312.32 680.96 312.32z m0 650.24c-171.008 0-309.76-138.752-309.76-309.76S509.952 343.04 680.96 343.04s309.76 138.752 309.76 309.76S851.968 962.56 680.96 962.56z" p-id="2650" fill="#515151"></path><path d="M857.6 640h-158.72V455.68c0-8.704-6.656-15.36-15.36-15.36s-15.36 6.656-15.36 15.36v199.68c0 8.192 6.656 15.36 15.36 15.36h174.08c8.704 0 15.36-7.168 15.36-15.36 0-8.704-6.656-15.36-15.36-15.36z" p-id="2651" fill="#515151"></path></svg>