<?xml version="1.0" standalone="no"?>
<!DOCTYPE svg PUBLIC "-//W3C//DTD SVG 1.1//EN" "http://www.w3.org/Graphics/SVG/1.1/DTD/svg11.dtd">
<svg t="1681711068791" class="icon" viewBox="0 0 1024 1024" version="1.1" xmlns="http://www.w3.org/2000/svg" p-id="6562" xmlns:xlink="http://www.w3.org/1999/xlink" width="200" height="200">
    <path d="M569.6 870.4h-38.4c-12.8 0-25.6-12.8-25.6-25.6s12.8-25.6 25.6-25.6h38.4v-192c0-19.2 6.4-38.4 19.2-51.2 12.8-12.8 32-19.2 51.2-19.2h275.2c19.2 0 38.4 6.4 57.6 19.2 12.8 12.8 25.6 32 25.6 51.2v249.6c0 19.2-6.4 38.4-25.6 51.2-12.8 12.8-32 19.2-57.6 19.2H640c-19.2 0-38.4-6.4-51.2-19.2-12.8-12.8-25.6-32-25.6-51.2v-6.4h6.4zM102.4 38.4h275.2c19.2 0 38.4 6.4 57.6 19.2 12.8 12.8 19.2 32 19.2 51.2v243.2c0 32-6.4 44.8-19.2 64-19.2 12.8-38.4 19.2-57.6 19.2H262.4v25.6c0 12.8-12.8 25.6-25.6 25.6s-25.6-12.8-25.6-25.6v-25.6H102.4c-19.2 0-38.4-6.4-57.6-19.2-12.8-12.8-19.2-32-19.2-57.6V108.8c0-19.2 6.4-38.4 25.6-51.2 12.8-12.8 32-19.2 51.2-19.2z m275.2 44.8H102.4c-6.4 0-19.2 0-25.6 6.4-6.4 6.4-6.4 12.8-6.4 19.2v192h339.2v-192c0-6.4-6.4-12.8-6.4-19.2-6.4 0-19.2-6.4-25.6-6.4zM70.4 345.6v12.8c0 6.4 0 12.8 6.4 19.2 6.4 6.4 12.8 6.4 25.6 6.4h275.2c6.4 0 19.2 0 25.6-6.4 6.4-6.4 6.4-12.8 6.4-19.2v-12.8H70.4z m544 473.6h339.2v-192c0-6.4 0-12.8-6.4-19.2-6.4-6.4-12.8-6.4-25.6-6.4h-275.2c-6.4 0-19.2 0-19.2 6.4-12.8 6.4-12.8 12.8-12.8 19.2v192z m339.2 51.2H614.4v12.8c0 6.4 0 12.8 6.4 19.2 6.4 6.4 12.8 6.4 25.6 6.4h275.2c6.4 0 19.2-6.4 25.6-6.4 6.4-6.4 6.4-12.8 6.4-19.2v-12.8zM217.6 620.8c0-12.8 12.8-25.6 25.6-25.6s25.6 12.8 25.6 25.6v32c0 12.8-12.8 25.6-25.6 25.6s-25.6-12.8-25.6-25.6v-32z m0-96c0-12.8 12.8-25.6 25.6-25.6 12.8 6.4 19.2 12.8 19.2 25.6v32c0 12.8-12.8 25.6-25.6 25.6s-25.6-12.8-25.6-25.6v-32h6.4z m0 185.6c0-12.8 12.8-25.6 25.6-25.6s25.6 12.8 25.6 25.6v32c-6.4 12.8-12.8 25.6-25.6 25.6s-25.6-12.8-25.6-25.6v-32z m160 108.8c12.8 0 25.6 12.8 25.6 25.6s-12.8 25.6-25.6 25.6h-32c-12.8 0-25.6-12.8-25.6-25.6s12.8-25.6 25.6-25.6h32z m89.6 0c12.8 0 25.6 12.8 25.6 25.6s-12.8 25.6-25.6 25.6h-32c-12.8 0-25.6-12.8-25.6-25.6s12.8-25.6 25.6-25.6h32z m-249.6-19.2c0-12.8 12.8-25.6 25.6-25.6s25.6 12.8 25.6 25.6v19.2h19.2c12.8 0 25.6 12.8 25.6 25.6s-12.8 25.6-25.6 25.6h-44.8c-6.4 0-19.2-6.4-19.2-12.8v-57.6h-6.4z" fill="#515151" p-id="6563">
    </path>
    <text x="600" y="450" font-size="512" fill="#515151">
        S
    </text>
</svg>