<?xml version="1.0" standalone="no"?><!DOCTYPE svg PUBLIC "-//W3C//DTD SVG 1.1//EN" "http://www.w3.org/Graphics/SVG/1.1/DTD/svg11.dtd"><svg t="1682123628316" class="icon" viewBox="0 0 1024 1024" version="1.1" xmlns="http://www.w3.org/2000/svg" p-id="2673" xmlns:xlink="http://www.w3.org/1999/xlink" width="200" height="200"><path d="M844.799642 674.803923 538.533306 521.15859l307.696917-177.029926c10.583033-5.006014 17.398252-15.59621 17.569144-27.302833s-6.332219-22.491247-16.764825-27.804253L475.584626 65.954131c-9.517771-4.846378-20.869307-4.39817-29.974685 1.181919-9.105379 5.581112-14.656815 15.493879-14.656815 26.174126l0 288.760636L210.662931 196.715267c-12.974499-10.915607-32.339546-9.248641-43.255153 3.724835-10.915607 12.973476-9.248641 32.339546 3.724835 43.255153L430.953126 462.312344l0 102.83511L171.558307 775.571954c-13.166881 10.68127-15.181771 30.013571-4.500501 43.180452 6.068206 7.480368 14.924921 11.360745 23.859407 11.360745 6.794753 0 13.634532-2.245134 19.322068-6.859221l220.714867-179.046862 0 283.065937c0 10.689457 5.561669 20.61041 14.680351 26.188452 4.903683 2.99931 10.455119 4.510734 16.019859 4.510734 4.78498 0 9.580193-1.118474 13.980409-3.368724l371.449917-224.085638c10.664897-5.456269 17.182334-16.618493 16.691147-28.589129C863.284645 689.959088 855.875908 679.368892 844.799642 674.803923zM763.458055 315.360458 492.351498 475.082182l0-21.60711c0.563842-3.368724 0.558725-6.801916 0-10.153244L492.351498 143.395898 763.458055 315.360458zM492.351498 877.084952 492.351498 584.489988c0.558725-3.347235 0.562818-6.777357 0-10.146081l0-5.809309 267.472797 137.65822L492.351498 877.084952z" p-id="2674" fill="#515151"></path></svg>