<?xml version="1.0" standalone="no"?><!DOCTYPE svg PUBLIC "-//W3C//DTD SVG 1.1//EN" "http://www.w3.org/Graphics/SVG/1.1/DTD/svg11.dtd"><svg t="1685949337702" class="icon" viewBox="0 0 1024 1024" version="1.1" xmlns="http://www.w3.org/2000/svg" p-id="3370" xmlns:xlink="http://www.w3.org/1999/xlink" width="200" height="200"><path d="M568.888889 910.222222H56.888889V113.777778h739.555555v398.222222h-56.888888V170.666667H113.777778v682.666666h398.222222z" fill="#515151" p-id="3371"></path><path d="M711.111111 512c108.088889 0 199.111111 91.022222 199.111111 199.111111S819.2 910.222222 711.111111 910.222222 512 819.2 512 711.111111 603.022222 512 711.111111 512m0-56.888889C568.888889 455.111111 455.111111 568.888889 455.111111 711.111111s113.777778 256 256 256 256-113.777778 256-256S853.333333 455.111111 711.111111 455.111111zM227.555556 56.888889h56.888888v170.666667H227.555556zM568.888889 56.888889h56.888889v170.666667h-56.888889zM170.666667 341.333333h512v56.888889H170.666667zM170.666667 512h284.444444v56.888889H170.666667zM170.666667 682.666667h227.555555v56.888889H170.666667z" fill="#515151" p-id="3372"></path><path d="M853.333333 796.444444h-170.666666v-227.555555h56.888889v170.666667h113.777777z" fill="#515151" p-id="3373"></path></svg>