<?xml version="1.0" standalone="no"?>
<!DOCTYPE svg PUBLIC "-//W3C//DTD SVG 1.1//EN" "http://www.w3.org/Graphics/SVG/1.1/DTD/svg11.dtd">
<svg t="1685933733629" class="icon" viewBox="0 0 1024 1024" version="1.1" xmlns="http://www.w3.org/2000/svg" p-id="7328" xmlns:xlink="http://www.w3.org/1999/xlink" width="200" height="200">
    <path d="M67.3 402.4h832v64h-832z" fill="#515151" p-id="7329">
    </path>
    <path d="M394.6 830c0 11 1.6 21.8 4.5 32H171.4v-64h227.7c-3 10.2-4.5 21-4.5 32zM851.9 798v64H624.2c3.1-10.2 4.8-21 4.8-32s-1.7-21.8-4.8-32h227.7zM870.6 64H153.4C104.1 64 64 103.7 64 152.4v394.8c0 48.8 40.1 88.4 89.4 88.4h326.2v66.9c10.2-2.5 21-3.9 32-3.9s21.7 1.3 32 3.9v-66.9h326.9c49.3 0 89.4-39.7 89.4-88.4V152.4c0.1-48.7-40-88.4-89.3-88.4zM896 547.3c0 13.5-11.4 24.4-25.4 24.4H153.4c-14 0-25.4-11-25.4-24.4V152.4c0-13.5 11.4-24.4 25.4-24.4h717.1c14 0 25.4 11 25.4 24.4v394.9z" fill="#515151" p-id="7330">
    </path>
    <path d="M640 797.4c-11.9-46.5-49.1-83.2-96.3-94.8-10.2-2.5-21-3.9-32-3.9s-21.7 1.3-32 3.9c-47.2 11.6-84.4 48.3-96.3 94.8-2.6 10.2-4 21-4 32s1.4 21.8 4 32C397.8 918 449.9 960 511.7 960s113.8-42 128.3-98.7c2.6-10.2 4-21 4-32s-1.4-21.7-4-31.9zM511.7 896c-25.8 0-48.3-14-60-34.7-5.3-9.5-8.4-20.4-8.4-32s3-22.5 8.4-32c11.6-20.7 34.1-34.7 60-34.7s48.3 14 60 34.7c5.4 9.5 8.4 20.4 8.4 32s-3 22.5-8.4 32C560 882 537.5 896 511.7 896z" fill="#515151" p-id="7331">
    </path>
    <text x="270" y="350" font-size="256" fill="#515151">
        M.B
    </text>
</svg>