<?xml version="1.0" standalone="no"?><!DOCTYPE svg PUBLIC "-//W3C//DTD SVG 1.1//EN" "http://www.w3.org/Graphics/SVG/1.1/DTD/svg11.dtd"><svg t="1706421479517" class="icon" viewBox="0 0 1024 1024" version="1.1" xmlns="http://www.w3.org/2000/svg" p-id="6797" xmlns:xlink="http://www.w3.org/1999/xlink" width="200" height="200"><path d="M544 388.512V96a32 32 0 0 0-64 0v292.512c-55.104 14.272-96 63.904-96 123.488s40.896 109.216 96 123.488v291.616C480 945.28 494.336 960 512 960s32-14.72 32-32.928V635.456c55.104-14.272 96-63.904 96-123.488s-40.896-109.184-96-123.456zM223.136 708.256c0.192-1.44 0.864-2.752 0.864-4.256V96a32 32 0 0 0-64 0v608c0 1.504 0.672 2.816 0.864 4.256A127.744 127.744 0 0 0 64 832a128 128 0 0 0 256 0 127.744 127.744 0 0 0-96.864-123.744zM192 896a64 64 0 1 1 0.032-128.032A64 64 0 0 1 192 896z m768-704a128 128 0 0 0-256 0 127.744 127.744 0 0 0 96.864 123.744c-0.192 1.44-0.864 2.752-0.864 4.256v608a32 32 0 0 0 64 0V320c0-1.504-0.672-2.816-0.864-4.256A127.744 127.744 0 0 0 960 192z m-128 64a64 64 0 1 1 0.032-128.032A64 64 0 0 1 832 256z" fill="#509CFB" p-id="6798"></path></svg>