<?xml version="1.0" standalone="no"?><!DOCTYPE svg PUBLIC "-//W3C//DTD SVG 1.1//EN" "http://www.w3.org/Graphics/SVG/1.1/DTD/svg11.dtd"><svg t="1715952808260" class="icon" viewBox="0 0 1638 1024" version="1.1" xmlns="http://www.w3.org/2000/svg" p-id="7383" xmlns:xlink="http://www.w3.org/1999/xlink" width="319.921875" height="200"><path d="M0 845.0048c0 97.4848 361.1904 176.512 806.7328 176.512 445.5424 0 806.7072-79.0272 806.7072-176.512 0-97.4336-361.216-176.4352-806.7072-176.4352C361.1904 668.5696 0 747.5712 0 845.0048z" fill="#F5F5F5" p-id="7384"></path><path d="M1399.1168 580.3008H214.2976V330.752L473.984 35.7888c12.544-22.6816 35.2768-35.328 57.9328-35.328h549.5808c22.7072 0 45.4144 12.6464 60.5184 37.8368L1399.168 330.752v249.6h-0.0512z m-1159.5776-25.1648H1373.952v-216.7808l-252.1344-287.488c-12.544-17.6128-25.1904-27.648-40.32-27.648H531.9168c-15.104 0-27.7248 10.0608-37.8112 25.1904L239.5136 340.8384v214.272l0.0256 0.0256z" fill="#8A8A8A" p-id="7385"></path><path d="M1048.7296 413.952c0-40.3456 25.1904-73.1136 55.4752-73.1136h282.368v456.2944c0 52.9152-32.768 98.3296-75.6736 98.3296h-1008.384c-40.3456 0-75.6224-42.88-75.6224-98.304V340.8128h282.368c30.2336 0 55.4496 32.768 55.4496 73.088s25.1904 73.1136 55.4496 73.1136H993.28c30.2592 2.5088 55.4496-32.768 55.4496-73.1136z" fill="#FAFAFA" p-id="7386"></path><path d="M1310.8992 908.0576h-1008.384c-47.872 0-88.2432-50.432-88.2432-110.9504V328.2688h294.9888c37.7856 0 68.0448 37.7856 68.0448 85.7088 0 32.768 20.1472 60.4928 42.8544 60.4928H993.28c22.6816 0 42.8544-27.7248 42.8544-60.4928 0-47.9232 30.2592-85.7088 68.096-85.7088h294.912V797.184c0 60.4928-37.8112 110.9248-88.2432 110.9248v-0.0512zM239.5136 353.4336v443.6992c0 47.8976 27.7248 85.7088 63.0272 85.7088h1008.384c35.2768 0 63.0016-37.8112 63.0016-85.7088V353.4336H1104.2048c-22.7072 0-42.88 27.7248-42.88 60.4928 0 47.8976-30.2592 85.7088-68.0448 85.7088H620.16c-37.8112 0-68.0448-37.8112-68.0448-85.7088 0-32.768-20.1472-63.0272-42.8544-63.0272H239.5136v2.5344z" fill="#8A8A8A" p-id="7387"></path></svg>