<?xml version="1.0" standalone="no"?><!DOCTYPE svg PUBLIC "-//W3C//DTD SVG 1.1//EN" "http://www.w3.org/Graphics/SVG/1.1/DTD/svg11.dtd"><svg t="1715867737474" class="icon" viewBox="0 0 1024 1024" version="1.1" xmlns="http://www.w3.org/2000/svg" p-id="13261" xmlns:xlink="http://www.w3.org/1999/xlink" width="200" height="200"><path d="M910.2336 1024H113.7664C51.2 1024 0 972.8 0 910.2336V113.7664C0 51.2 51.2 0 113.7664 0h796.4672C972.8 0 1024 51.2 1024 113.7664v796.4672C1024 972.8 972.8 1024 910.2336 1024zM425.0624 579.3536h66.9952c54.016 1.7664 99.0208-13.056 135.04-44.5184 35.968-31.4368 53.9648-72.4992 53.9648-123.136 0-50.0224-15.36-88.448-46.1568-115.3536C604.16 269.4656 560.8448 256 505.088 256H358.4v516.352h66.6624v-192.9984z m0-264.6784h68.0192c78.6432 0 117.9904 33.2288 117.9904 99.6864 0 34.2016-10.5472 60.4928-31.6672 78.7968-21.0944 18.3552-51.968 27.52-92.672 27.52h-61.6704v-206.0032z" fill="#1296db" p-id="13262"></path></svg>