<?xml version="1.0" standalone="no"?><!DOCTYPE svg PUBLIC "-//W3C//DTD SVG 1.1//EN" "http://www.w3.org/Graphics/SVG/1.1/DTD/svg11.dtd"><svg t="1767861280569" class="icon" viewBox="0 0 1024 1024" version="1.1" xmlns="http://www.w3.org/2000/svg" p-id="4959" xmlns:xlink="http://www.w3.org/1999/xlink" width="200" height="200"><path d="M688 320H960L640 0v272a48 48 0 0 0 48 48z m-96 256H544v192h48a16 16 0 0 0 16-16v-160a16 16 0 0 0-16-16zM576 288V0H160a96 96 0 0 0-96 96v832a96 96 0 0 0 96 96h704a96 96 0 0 0 96-96V384h-288a96 96 0 0 1-96-96z m-128 512a32 32 0 0 1-32 32l-1.632-0.032h0.064c-17.216-0.8-30.464-15.648-30.464-32.864v-119.552l-35.04 70.08a32.832 32.832 0 0 1-22.592 17.728l-0.224 0.032a32 32 0 0 1-34.688-16.896l-0.096-0.192-35.392-70.752v119.552c0 17.216-13.248 32.064-30.464 32.864L223.936 832a32 32 0 0 1-32-32v-256a32 32 0 0 1 60.544-14.496l0.096 0.192 67.392 134.752 67.008-134.016a32.64 32.64 0 0 1 32.448-18.208h-0.128c16.192 1.76 28.672 15.328 28.672 31.84z m224-48a80 80 0 0 1-80 80H480V512h112a80 80 0 0 1 80 80z m32 48a32 32 0 0 1 32-32h64v-64h-64a32 32 0 0 1-32-32v-128a32 32 0 0 1 32-32h96a32 32 0 0 1 0 64h-64v64h64a32 32 0 0 1 32 32v128a32 32 0 0 1-32 32h-96a32 32 0 0 1-32-32z" p-id="4960" fill="#1296db"></path></svg>