<?xml version="1.0" standalone="no"?><!DOCTYPE svg PUBLIC "-//W3C//DTD SVG 1.1//EN" "http://www.w3.org/Graphics/SVG/1.1/DTD/svg11.dtd"><svg t="1714465526179" class="icon" viewBox="0 0 2835 1024" version="1.1" xmlns="http://www.w3.org/2000/svg" p-id="5954" xmlns:xlink="http://www.w3.org/1999/xlink" width="553.7109375" height="200"><path d="M210.316 350.917v140.6h278.84v-281.2h-278.84v140.6m381.337 171.028c38.509 0.17 101.51 0.17 140.012 0 38.509-0.17 7.004-0.312-70.006-0.312-77.003 0-108.508 0.141-70.006 0.312" fill="#EF511F" p-id="5955"></path><path d="M518.698 350.917v140.6h282.385v-281.2H518.698v140.6" fill="#7BB900" p-id="5956"></path><path d="M210.316 660.482V799.9h278.84V521.06h-278.84v139.423" fill="#00A2EE" p-id="5957"></path><path d="M518.698 661.07V799.9h282.385V522.241H518.698v138.829" fill="#FFB800" p-id="5958"></path><path d="M15.362 511.609v496.246H2820.33V15.362H15.362V511.61M1735.444 201.1c1.807 1.808 1.963 21.027 0.17 21.027-0.688 0-3.594-0.589-6.451-1.305-16.851-4.246-25.387 5.317-25.387 28.442v13.038h13.569c15.703 0 15.192-0.461 14.561 13.03l-0.361 7.649-13.881 0.333-13.888 0.333v106.26h-25.968l-0.305-52.87-0.312-52.88-10.038-0.588-10.045-0.588-0.362-7.65c-0.61-13.136-0.354-13.483 9.358-12.668 11.889 1 11.683 1.198 11.69-11.414 0.014-27.279 7.883-42.358 25.472-48.83 8.131-2.999 29.626-3.878 32.178-1.319m-268.838 4.296c5.274 3.474 6.692 6.225 6.735 13.009 0.085 13.69-16.37 20.112-26.018 10.159-12.463-12.86 4.325-33.029 19.283-23.168m-379.593 6.664c4.225 0.837 10.606 2.51 14.178 3.722l6.501 2.212 0.334 13.292c0.326 12.825-0.936 16.873-3.8 12.243-4.608-7.458-47.42-13.547-64.073-9.116-63.902 17.014-64.391 121.778-0.63 134.284 14.816 2.9 43.073-0.886 46.526-6.246 0.524-0.822 0.83-11.06 0.666-22.756l-0.29-21.268-18.312-0.596-18.318-0.588-0.34-10.932-0.341-10.924h63.895v40.579c0 45.747 0.73 42.237-9.69 46.704-70.397 30.171-134.576-4.382-137.68-74.132-3.05-68.532 49.844-110.571 121.374-96.478M489.157 350.917v140.6h-278.84v-281.2h278.84v140.6m311.926 0v140.6H518.698v-281.2h282.385v140.6m519.875-106.962v18.276l15.66 0.333 15.653 0.326 0.34 10.343 0.34 10.336h-31.993v35.517c0 38.516 0.645 43.918 5.827 48.88 4.19 4.02 12.782 5.169 19.956 2.673 6.217-2.17 6.36-1.928 5.877 9.812l-0.347 8.634-4.729 1.766c-13.703 5.097-34.064 1.354-42.046-7.742-8.514-9.69-8.62-10.393-9.103-57.302l-0.425-42.238h-21.183l0.348-10.336 0.34-10.343 10.336-0.34 10.336-0.34v-29.166l10.344-3.516c15.858-5.402 14.469-6.784 14.469 14.427m224.6 0.326l-0.255 18.02h14.158c18.836 0 17.893-0.595 17.893 11.315v9.882l-15.653 0.334-15.66 0.326 0.028 37.814c0.036 40.692 0.149 41.535 6.48 47.263 3.055 2.765 18.935 3.382 21.487 0.837 2.737-2.736 3.318-1.375 3.297 7.727-0.022 10.733-0.277 11.265-6.48 13.37-12.619 4.29-31.377 1.255-39.388-6.373-9.96-9.485-10.797-14.228-10.81-61.35l-0.015-39.877h-21.36l0.34-10.336 0.34-10.343 8.862-0.064c4.878-0.035 9.528-0.17 10.343-0.298 1.085-0.17 1.475-4.076 1.475-14.922V232.91l10.336-3.474c15.873-5.331 14.88-6.345 14.583 14.845M1217.1 261.146c17.114 3.24 31.264 16.568 37.24 35.056 2.58 7.997 3.75 36.985 1.496 37.013-0.9 0.014-20.51 0.142-43.578 0.298l-41.947 0.27 0.192 5.564c1 29.76 38.99 42.919 70.417 24.387 3.14-1.85 5.97-3.367 6.288-3.367 0.32 0 0.433 4.906 0.248 10.896l-0.34 10.896-4.714 2.637c-18.432 10.33-51.553 10.79-70.254 0.986-27.69-14.519-37.162-64.874-18.284-97.172 12.52-21.424 37.623-32.327 63.236-27.464m708.81 1.163c31.313 10.314 46.583 40.472 40.033 79.059-11.06 65.086-106.197 71.048-124.033 7.777-4.275-15.164-1.56-44.854 5.274-57.742 13.172-24.827 50.164-38.502 78.726-29.094m157.707 1.8c6.983 3.538 15.483 12.08 16.716 16.802 0.922 3.502 2.092 3.353 4.601-0.589 14.548-22.905 52.376-27.59 69.425-8.599 10.379 11.556 10.74 13.803 11.23 69.446l0.418 48.739h-24.777l-0.447-44.606c-0.418-42.124-0.581-44.896-2.9-49.958-7.875-17.184-30.554-19.523-42.818-4.416-8.294 10.215-8.911 14.08-9.35 58.514l-0.405 40.466h-24.493l-0.355-44.606c-0.404-49.34-0.46-49.76-8.344-57.905-9.69-10.01-29.477-7.869-37.955 4.105-7.416 10.485-7.635 12.08-7.735 57.345l-0.092 41.06h-24.77l-0.312-61.513c-0.375-72.7-1.566-66.092 11.903-66.092 12.974 0 13.647 0.58 12.966 11.243l-0.489 7.713 7.146-6.912c15.49-14.972 34.071-18.715 50.837-10.237m-257.197-1.574c1.453 1.454 2.091 22.332 0.723 23.7-0.383 0.39-3.176-0.05-6.203-0.971-17.617-5.346-30.952 3.339-36.39 23.706-1.162 4.339-1.587 15.908-1.594 43.421l-0.014 37.517h-26.018l0.312-63.506 0.305-63.512h24.812l0.34 10.974c0.206 6.643 0.787 10.69 1.475 10.265 0.624-0.383 1.134-1.488 1.134-2.453 0-4.856 13.973-18.19 20.68-19.736 5.146-1.191 19.062-0.78 20.438 0.595m-355.688 63.903l0.305 63.548-12.711-0.334-12.711-0.333-0.326-60.854c-0.405-74.245-1.971-66.327 13.058-65.908l12.08 0.333 0.305 63.548m-276.92-44.5c-5.898 2.092-13.88 8.728-17.46 14.505-3.113 5.034-7.125 15.377-6.296 16.213 0.475 0.468 55.374 0.986 60.925 0.575 2.099-0.163 0.773-10.308-2.24-17.107-5.813-13.115-20.8-19.204-34.929-14.185m699.601 0.056c-34.78 9.5-38.955 69.539-6.04 86.971 11.109 5.884 31.327 3.226 41.685-5.494 15.915-13.392 16.277-58.359 0.588-73.175-7.607-7.181-25.4-11.265-36.233-8.302m639.512 202.618c2.602 1.368 2.659 1.815 2.659 22.607v21.204l-2.659-0.758c-17.311-4.934-23.174-5.353-32.553-2.326-15.008 4.85-20.325 16.235-20.325 43.542v18.34h73.26v-22.89c0-26.465-0.872-24.508 12.683-28.556l23.245-6.955a528.389 528.389 0 0 1 14.476-4.218c0.22 0 0.397 14.086 0.397 31.313v31.306h50.809v20.68c0 15.68-0.355 20.707-1.475 20.814-0.815 0.07-11.13 0.02-22.933-0.114-11.797-0.142-22.565 0.1-23.926 0.532-2.765 0.879-3.871 98.519-1.255 110.507 0.645 2.928 1.446 6.55 1.786 8.046 3.006 13.193 25.266 19.807 41.011 12.186 2.843-1.382 5.537-2.51 5.984-2.51 0.446 0 0.808 9.323 0.808 20.708v20.708l-3.247 1.304c-14.044 5.644-39.99 7.26-54.956 3.439-21.707-5.558-31.852-15.15-39.43-37.297l-3.233-9.45-0.666-63.803-0.674-63.803h-72.069l-0.304 85.234-0.305 85.227-2.652 0.709c-3.452 0.928-43.201 0.928-46.654 0l-2.651-0.71-0.305-85.226-0.298-85.234h-34.858v-41.947h35.447l0.014-19.197c0.042-44.393 15.965-70.304 50.638-82.406 12.548-4.38 46.598-5.012 54.211-1.006M1387.13 500.719c12.555 6.196 18.878 20.183 14.873 32.894-9.238 29.3-53.148 28.244-59.798-1.446-5.58-24.876 20.814-43.35 44.925-31.448m-335.832 4.09c0.66 0.816 7.14 16.902 14.413 35.745 14.434 37.431 22.026 56.969 27.08 69.708 1.808 4.552 12.28 31.533 23.275 59.961 10.988 28.428 20.523 51.688 21.182 51.688 0.66 0.007 2.19-2.78 3.396-6.196 1.205-3.41 3.133-8.33 4.289-10.925 1.156-2.602 3.8-8.982 5.884-14.178 2.084-5.204 4.488-11.053 5.338-13.002 0.851-1.95 17.199-41.827 36.318-88.615l34.766-85.071 35.63-0.312 35.624-0.312 0.305 147.825c0.283 137.566 0.17 147.902-1.688 148.895-2.233 1.19-39.288 1.439-46.158 0.305l-4.43-0.73v-114.69c0-63.08-0.44-114.186-0.979-113.57-0.538 0.617-3.154 6.7-5.806 13.527-9.067 23.33-29.959 76.209-31.043 78.57-0.596 1.304-7.231 18.049-14.746 37.218s-14.164 35.921-14.767 37.218c-2.311 4.949-23.635 59.734-23.635 60.72 0 2.367-31.625 3.8-35 1.588-1.248-0.816-6.352-11.052-6.352-12.733 0-0.425-0.766-2.445-1.694-4.494-2.893-6.36-36.12-88.14-36.12-88.9 0-0.396-0.758-2.395-1.694-4.444a352.3 352.3 0 0 1-4.778-11.4 433.166 433.166 0 0 0-4.14-10.045c-0.575-1.297-9.564-23.31-19.964-48.909-10.407-25.606-19.346-46.98-19.87-47.497-0.518-0.525-0.802 50.305-0.625 112.952 0.32 112.868 0.305 113.91-2.041 115.165-1.496 0.8-10.244 1.148-23.955 0.943l-21.587-0.32-0.304-148.583-0.298-148.576h36.488c27.762 0 36.772 0.355 37.686 1.475m-562.14 155.672V799.9h-278.84V521.06h278.84v139.423m311.926 0V799.9H518.698V521.06h282.385v139.423m765.127-76.79c10.201 1.744 19.75 4.565 29.165 8.62l3.247 1.397v23.933c0 26.372 0.205 25.805-7.465 20.552-35.673-24.394-83.504-13.491-100.03 22.82-9.981 21.934-8.471 56.586 3.283 75.11 19.524 30.782 64.746 36.056 99.667 11.62 1.723-1.205 3.467-2.19 3.864-2.19 0.404 0 0.588 10.491 0.411 23.316l-0.319 23.316-4.743 2.488c-28.527 14.93-76.946 14.76-107.508-0.375-81.001-40.118-67.808-179.819 19.496-206.46 16.05-4.899 44.988-6.862 60.932-4.147m328.6 0.057c53.495 7.259 84.475 44.562 86.29 103.906 2.233 73.048-40.076 118.128-110.89 118.15-79.74 0.02-124.898-65.64-102.376-148.867 14.193-52.446 64.803-81.619 126.976-73.19m213.052-0.035c29.392 4.587 28.357 3.445 28.357 31.306 0 12.654-0.376 23.012-0.836 23.012-0.468 0-5.119-2.084-10.344-4.637-39.848-19.467-78.832-8.393-66.943 19.014 3.552 8.188 8.55 11.676 29.604 20.665 45.86 19.587 59.699 35.035 59.607 66.568-0.107 40.139-33.447 66.17-84.752 66.17-17.276 0-44.84-5.146-53.942-10.066l-2.95-1.602-0.318-24.295c-0.347-25.96-0.305-26.131 5.452-22.104 31.788 22.239 80.725 23.337 84.744 1.907 2.666-14.214-5.395-23.296-30.604-34.454-21.452-9.492-24.337-10.91-32.05-15.78-18.29-11.556-27.819-28.932-27.819-50.752 0-33.717 22.849-56.92 64.399-65.413 4.906-1 31.03-0.687 38.395 0.461m193.394 0.036c44.393 6.025 71.269 30.61 83.866 76.733 3.07 11.223 3.084 52.751 0.028 63.803-12.937 46.747-39.557 71.821-84.695 79.754-56.075 9.861-108.181-16.12-123.898-61.782-6.267-18.198-6.522-19.921-6.593-44.556-0.227-79.45 51.921-124.714 131.292-113.952m-543.063 2.608c2.432 1.517 3.722 50.49 1.319 50.49-0.532 0-4.389-1.41-8.564-3.134-16.624-6.862-35.056-3.941-47.292 7.5-15.66 14.647-18.07 30.08-17.397 111.323l0.39 47.271-5.913 0.702c-3.247 0.39-14.412 0.539-24.812 0.347l-18.9-0.361-0.305-106.637-0.298-106.636h24.72c18.709 0 24.848 0.362 25.238 1.482 0.29 0.808 0.255 8.067-0.078 16.128-0.652 15.83-0.064 16.9 4.452 8.096 7.004-13.633 24.182-25.99 39.608-28.478 5.933-0.957 25.38 0.376 27.832 1.907m-361.147 2.737c0.39 1.028 0.716 48.816 0.716 106.204v104.325l-2.658 0.716c-3.417 0.914-45.017 0.964-47.385 0.056-1.857-0.716-3.098-206.438-1.268-211.209 1.12-2.907 49.475-2.992 50.595-0.092m465.061 37.062c-32.348 4.672-51.106 37.353-46.18 80.456 4.176 36.623 20.879 54.608 52.312 56.36 40.33 2.247 60.103-20.141 60.273-68.227 0.17-49.32-24.366-74.664-66.405-68.589m408.808-0.39c-31.356 3.658-48.399 28.357-48.406 70.163-0.007 42.436 17.645 65.121 52.177 67.042 40.026 2.233 58.536-17.843 59.748-64.788 1.34-51.539-21.289-77.337-63.52-72.417" fill="#2C2C2C" p-id="5959"></path><path d="M1418.144 15.065l1402.186 0.297v992.493H15.362l-0.297-495.36-0.298-495.36v991.308h2806.158V14.767H15.951l1402.193 0.298M1055.998 209.99c2.112 0.262 5.572 0.262 7.684 0 2.113-0.262 0.383-0.482-3.842-0.482s-5.955 0.22-3.842 0.482m486.498 16.49c1.305 0.354 2.807 1.254 3.34 1.992 0.644 0.886 0.814 0.737 0.502-0.433-0.262-0.978-1.765-1.871-3.339-1.992-2.261-0.17-2.367-0.078-0.503 0.433m-487.654 5.955c2.12 0.269 5.31 0.262 7.09-0.007 1.772-0.27 0.035-0.49-3.864-0.483-3.9 0.008-5.353 0.227-3.226 0.49m466.259 15.1c0 8.443 0.191 11.747 0.418 7.33 0.227-4.41 0.227-11.322-0.007-15.355-0.227-4.034-0.418-0.426-0.411 8.025m181.91 5.317c0 5.522 0.205 7.784 0.453 5.019a67.88 67.88 0 0 0 0-10.046c-0.248-2.757-0.454-0.503-0.454 5.027m-422.49 10.314c2.78 0.249 7.033 0.249 9.458-0.007 2.417-0.255 0.141-0.453-5.055-0.453-5.196 0.007-7.181 0.212-4.402 0.46m48.412 0.008c3.417 0.24 8.996 0.24 12.406 0 3.417-0.242 0.624-0.433-6.203-0.433-6.82 0-9.613 0.191-6.203 0.433m121.73-0.008c2.778 0.249 7.032 0.249 9.456-0.007 2.418-0.255 0.142-0.453-5.054-0.453-5.197 0.007-7.182 0.212-4.403 0.46m54.34-0.028c1.467 0.284 3.593 0.27 4.72-0.021 1.135-0.298-0.07-0.532-2.672-0.518-2.595 0.014-3.523 0.255-2.049 0.54m48.427 0.035c4.062 0.233 10.704 0.233 14.767 0 4.062-0.227 0.744-0.419-7.38-0.419s-11.45 0.192-7.387 0.419m106.927-0.029c1.786 0.277 4.714 0.277 6.5 0 1.787-0.27 0.326-0.489-3.246-0.489-3.58 0-5.04 0.22-3.254 0.49m50.808 0.028c3.736 0.233 9.854 0.233 13.59 0 3.736-0.234 0.674-0.426-6.798-0.426s-10.528 0.192-6.792 0.426m46.328 0.602c-0.312 0.815-0.425 29.661-0.248 64.1l0.32 62.62 0.283-63.456 0.283-63.455 9.16-0.404 9.152-0.404-9.195-0.234c-6.444-0.17-9.358 0.198-9.755 1.233m250.236-0.602c3.09 0.24 8.138 0.24 11.23 0 3.083-0.249 0.56-0.447-5.615-0.447s-8.699 0.198-5.615 0.447m-655.626 10.35c-0.007 5.848 0.198 8.393 0.44 5.65 0.247-2.744 0.254-7.529 0.006-10.634-0.24-3.105-0.446-0.865-0.446 4.984m118.283 53.169c0 35.092 0.15 49.277 0.334 31.526 0.184-17.752 0.184-46.463 0-63.803-0.185-17.34-0.334-2.815-0.334 32.277m311.622-52.283c-0.227 10.676 0.617 13.725 2.821 10.159 0.51-0.83 0.326-1.042-0.475-0.546-0.928 0.567-1.439-2.467-1.708-10.159l-0.39-10.974-0.248 11.52m-336.434 52.283c0 34.447 0.149 48.363 0.333 30.937a3546.388 3546.388 0 0 0 0-62.626c-0.184-17.014-0.333-2.75-0.333 31.689m381.075-50.56c-0.32 5.983-0.156 10.45 0.354 9.932 0.518-0.518 0.78-5.417 0.589-10.875l-0.362-9.932-0.581 10.875m122.303 0.347c2.538 2.602 4.877 4.729 5.204 4.729 0.326 0-1.49-2.127-4.027-4.729-2.538-2.602-4.878-4.729-5.204-4.729-0.326 0 1.49 2.127 4.027 4.729m76.479-1.184c0 2.276 0.248 3.204 0.546 2.07 0.29-1.134 0.29-2.999 0-4.133-0.298-1.141-0.546-0.213-0.546 2.063m-124.02 5.58c1.794 0.269 4.453 0.262 5.906-0.022 1.453-0.276-0.014-0.503-3.268-0.49-3.247 0.008-4.438 0.235-2.637 0.511m150.625-0.014c1.467 0.277 3.856 0.277 5.316 0 1.468-0.283 0.27-0.517-2.658-0.517-2.92 0-4.119 0.234-2.658 0.517m80.349 0c1.46 0.277 3.85 0.277 5.317 0 1.46-0.283 0.262-0.517-2.659-0.517-2.927 0-4.126 0.234-2.658 0.517m-611.212 44.06c0 22.423 0.156 31.596 0.354 20.381a1446.912 1446.912 0 0 0 0-40.763c-0.198-11.208-0.354-2.034-0.354 20.382m181.966 12.406c0 29.243 0.156 41.04 0.347 26.209 0.185-14.824 0.185-38.75-0.007-53.17-0.184-14.412-0.34-2.282-0.34 26.96m-523.625-23.344c3.765 0.234 9.613 0.234 12.995-0.007 3.389-0.234 0.312-0.425-6.834-0.425s-9.918 0.198-6.16 0.432m28.328-0.028c1.8 0.276 4.459 0.27 5.912-0.015 1.454-0.283-0.021-0.503-3.268-0.496-3.247 0.014-4.438 0.241-2.644 0.51m13.59-0.006c1.467 0.276 3.594 0.269 4.721-0.029 1.135-0.298-0.07-0.524-2.672-0.51-2.595 0.014-3.524 0.255-2.05 0.539m560.851 39.926c0 20.14 0.163 28.548 0.362 18.68 0.198-9.868 0.198-26.35 0-36.63-0.199-10.272-0.355-2.197-0.362 17.95m82.561-26.584c0 4.218 0.22 5.947 0.482 3.835a37.552 37.552 0 0 0 0-7.678c-0.262-2.112-0.482-0.383-0.482 3.843m160.84 27.76c-0.006 19.496 0.157 27.642 0.355 18.093 0.199-9.542 0.199-25.493 0-35.446-0.198-9.947-0.354-2.141-0.354 17.354m-479.934 0c0.014 2.602 0.255 3.523 0.539 2.056 0.283-1.468 0.27-3.594-0.021-4.729-0.298-1.127-0.532 0.078-0.518 2.673m-494.474 15.603c1.46 0.284 3.85 0.284 5.317 0 1.46-0.276 0.262-0.51-2.658-0.51-2.928 0-4.126 0.234-2.659 0.51m300.392 8.862c-0.319 5.657-0.156 9.861 0.362 9.343 0.517-0.524 0.78-5.153 0.581-10.286l-0.361-9.344-0.582 10.287m-145.598-6.494c1.467 0.284 3.594 0.27 4.728-0.021 1.127-0.298-0.078-0.532-2.673-0.518-2.601 0.015-3.523 0.256-2.055 0.54m741.625 3.005l-3.473 3.835 3.842-3.466c2.112-1.907 3.835-3.637 3.835-3.843 0-0.914-0.971-0.106-4.204 3.474m-900.559 17.113c3.091 0.241 8.139 0.241 11.23 0 3.083-0.24 0.56-0.446-5.615-0.446s-8.699 0.205-5.615 0.446m153.602-0.007c2.44 0.256 6.423 0.256 8.862 0s0.447-0.468-4.43-0.468c-4.871 0-6.87 0.213-4.432 0.468m127.607-0.014c1.786 0.27 4.714 0.27 6.5 0s0.327-0.496-3.254-0.496c-3.572 0-5.033 0.227-3.246 0.496m224.494 0c1.787 0.27 4.708 0.27 6.494 0s0.326-0.496-3.247-0.496-5.033 0.227-3.247 0.496m345.005 0.014c2.438 0.256 6.43 0.256 8.861 0 2.439-0.255 0.447-0.468-4.43-0.468-4.87 0-6.863 0.213-4.431 0.468m637.01 115.52c0 7.797 0.191 10.832 0.425 6.748 0.227-4.09 0.227-10.47-0.007-14.178-0.234-3.715-0.425-0.369-0.418 7.43M1369.696 497.06c1.141 0.298 2.999 0.298 4.14 0 1.134-0.297 0.206-0.538-2.07-0.538s-3.204 0.24-2.07 0.538m1079.59 7.16l-6.458 6.792 6.799-6.458c6.31-5.998 7.33-7.125 6.458-7.125-0.184 0-3.247 3.056-6.798 6.792m-1058.614-1.702c0 0.206 1.723 1.935 3.835 3.842l3.843 3.474-3.474-3.842c-3.233-3.58-4.204-4.381-4.204-3.474m-49.355 23.267c0 2.269 0.248 3.204 0.546 2.063 0.29-1.134 0.29-2.999 0-4.133-0.298-1.134-0.546-0.206-0.546 2.07m61.464 0.588c0.014 2.602 0.255 3.524 0.538 2.056 0.284-1.474 0.277-3.601-0.02-4.728-0.299-1.127-0.526 0.07-0.518 2.672m1086.056 5.615l-3.474 3.835 3.842-3.466c3.58-3.233 4.381-4.211 3.474-4.211-0.206 0-1.935 1.73-3.842 3.842m-60.294 34.56c0 11.045 0.177 15.724 0.397 10.393s0.22-14.37 0-20.084c-0.213-5.72-0.397-1.361-0.397 9.691m-1183.845 4.211c-0.582 0.95-0.418 1.17 0.46 0.624 1.029-0.631 1.433 27.591 1.652 114.13l0.291 114.98 0.305-114.548c0.29-106.544-0.014-119.532-2.708-115.186M1024.96 687.067c0 61.733 0.142 87.162 0.319 56.508 0.177-30.66 0.177-81.171 0-112.25s-0.319-5.998-0.319 55.742m711.603-102.532c2.112 0.263 5.572 0.263 7.685 0 2.112-0.262 0.382-0.475-3.843-0.475s-5.955 0.213-3.842 0.475m-374.489 3.566c5.395 0.22 13.902 0.22 18.907 0 5.005-0.22 0.589-0.397-9.804-0.397-10.4 0-14.498 0.185-9.103 0.397m287.646 0a254.574 254.574 0 0 0 18.318 0c5.034-0.22 0.915-0.404-9.159-0.404s-14.193 0.185-9.16 0.404m757.414 0c3.757 0.234 9.606 0.234 12.995-0.007s0.312-0.432-6.834-0.425c-7.153 0-9.925 0.198-6.16 0.432m90.344 0.007c8.607 0.199 22.7 0.199 31.306 0 8.614-0.205 1.567-0.368-15.653-0.368s-24.266 0.163-15.653 0.368m49.03-0.07c1.14 0.297 2.998 0.297 4.14 0 1.134-0.298 0.205-0.54-2.07-0.54s-3.205 0.242-2.07 0.54m70.36 0.063c5.395 0.22 13.902 0.22 18.907 0 5.005-0.22 0.588-0.397-9.804-0.397-10.4 0-14.498 0.185-9.103 0.397m-1270.532 98.966c0 53.935 0.142 76.174 0.32 49.412 0.176-26.755 0.176-70.885 0-98.065-0.178-27.18-0.32-5.289-0.32 48.653m339.993-93.932c0 2.268 0.24 3.204 0.538 2.063 0.298-1.135 0.298-3 0-4.133-0.297-1.135-0.538-0.206-0.538 2.07M1397.146 693.56c0 55.565 0.141 78.293 0.319 50.51 0.177-27.775 0.177-73.238 0-101.021-0.178-27.776-0.32-5.048-0.32 50.51m625.611-87.729l-6.458 6.8 6.791-6.46c3.736-3.55 6.792-6.613 6.792-6.798 0-0.872-1.127 0.15-7.125 6.458m59.443 17.71a77.06 77.06 0 0 0 10.634-0.008c2.744-0.248 0.206-0.446-5.643-0.446-5.849 0.007-8.096 0.212-4.99 0.453m346.422 91.884c0 46.789 0.148 65.753 0.326 42.152 0.177-23.607 0.177-61.889 0-85.07-0.178-23.19-0.326-3.871-0.326 42.918m-448.068-37.814c0.014 2.602 0.255 3.523 0.539 2.056 0.283-1.468 0.276-3.594-0.022-4.729-0.297-1.127-0.524 0.078-0.517 2.673m354.617 16.546c0 7.798 0.192 10.833 0.426 6.742 0.234-4.083 0.227-10.464-0.007-14.178-0.234-3.708-0.419-0.362-0.419 7.436m-113.434 1.177c0 7.153 0.198 9.925 0.432 6.16 0.234-3.757 0.234-9.605-0.007-12.994s-0.433-0.312-0.425 6.834m-535.386-4.721c0.014 2.594 0.255 3.523 0.539 2.048 0.283-1.467 0.276-3.594-0.022-4.721-0.297-1.134-0.524 0.07-0.517 2.673m294.182 17.127c0 2.276 0.24 3.205 0.538 2.07 0.298-1.134 0.298-2.999 0-4.133-0.297-1.141-0.538-0.205-0.538 2.063m-548.21 5.317c0.014 2.602 0.255 3.523 0.538 2.056 0.284-1.467 0.27-3.594-0.021-4.729-0.298-1.127-0.532 0.078-0.518 2.673m714.885 26.585c0 3.573 0.227 5.04 0.497 3.254a26.244 26.244 0 0 0 0-6.501c-0.27-1.787-0.497-0.326-0.497 3.247m461.63 13.37c0 0.206 1.73 1.928 3.842 3.835l3.836 3.474-3.467-3.842c-3.233-3.58-4.211-4.382-4.211-3.467m-1064.27 11.109c1.786 0.27 4.713 0.27 6.5 0s0.326-0.49-3.254-0.49c-3.573 0-5.033 0.22-3.247 0.49m324.92 0c1.787 0.27 4.715 0.27 6.502 0s0.326-0.49-3.247-0.49c-3.58 0-5.04 0.22-3.254 0.49m407.063 0.007c2.127 0.27 5.317 0.262 7.09-0.007s0.035-0.49-3.864-0.482c-3.899 0.007-5.352 0.227-3.226 0.489m353.852-0.036c1.135 0.291 3 0.291 4.133 0 1.135-0.297 0.206-0.545-2.07-0.545s-3.204 0.248-2.063 0.545M1461.516 776.57c4.891 5.217 5.955 6.153 5.955 5.267 0-0.192-2.524-2.715-5.615-5.615l-5.607-5.267 5.267 5.615m477.977 8.712c-2.12 1.808-2.56 2.524-1.085 1.794 2.17-1.078 6.232-4.963 5.07-4.856-0.242 0.028-2.035 1.403-3.985 3.062m-593.425 10.485c0.014 2.602 0.255 3.524 0.538 2.056 0.284-1.475 0.277-3.601-0.02-4.728-0.299-1.128-0.525 0.07-0.518 2.672m-356.766 5.02c6.373 0.212 16.476 0.212 22.452-0.008 5.976-0.212 0.765-0.383-11.584-0.383-12.342 0-17.234 0.178-10.868 0.39m139.36-0.007a187.014 187.014 0 0 0 15.951 0c4.388-0.227 0.801-0.41-7.975-0.41-8.77 0-12.357 0.183-7.976 0.41m134.76 0.007c6.373 0.213 16.475 0.213 22.451-0.007 5.976-0.212 0.766-0.383-11.584-0.383s-17.24 0.178-10.868 0.39m96.3 0a437.406 437.406 0 0 0 23.629-0.007c6.302-0.205 0.822-0.383-12.172-0.383-13.002 0.008-18.156 0.178-11.456 0.39m288.879 0c6.373 0.213 16.475 0.213 22.451-0.007 5.976-0.212 0.766-0.383-11.584-0.383-12.342 0-17.234 0.178-10.867 0.39m793.937 0c6.33 0.213 16.702 0.213 23.04 0 6.33-0.212 1.148-0.39-11.52-0.39-12.676 0-17.858 0.178-11.52 0.39m-917.453 4.68c1.467 0.283 3.594 0.269 4.728-0.022 1.128-0.298-0.078-0.532-2.672-0.518-2.602 0.015-3.524 0.256-2.056 0.54m23.614 0c1.468 0.276 3.857 0.276 5.317 0 1.468-0.284 0.27-0.518-2.658-0.518-2.921 0-4.12 0.234-2.659 0.517m307.205 0c1.46 0.277 3.85 0.277 5.317 0 1.46-0.283 0.262-0.517-2.659-0.517-2.927 0-4.126 0.234-2.658 0.517m23.628 0c1.46 0.277 3.857 0.277 5.317 0 1.46-0.283 0.263-0.517-2.658-0.517-2.928 0-4.12 0.234-2.659 0.517m168.972 0c1.475 0.284 3.601 0.27 4.729-0.021 1.127-0.298-0.071-0.532-2.673-0.518-2.602 0.015-3.523 0.256-2.056 0.54m23.636 0c1.467 0.283 3.594 0.269 4.721-0.022 1.134-0.298-0.07-0.532-2.673-0.518-2.594 0.015-3.523 0.256-2.048 0.54m190.21 0c1.461 0.276 3.857 0.276 5.318 0 1.46-0.284 0.262-0.518-2.659-0.518-2.928 0-4.119 0.234-2.658 0.517m23.628 0c1.468 0.277 3.857 0.277 5.317 0 1.468-0.283 0.27-0.517-2.658-0.517-2.921 0-4.12 0.234-2.659 0.517m319.611-0.021c1.134 0.298 2.999 0.298 4.133 0s0.206-0.539-2.07-0.539-3.204 0.241-2.063 0.539m18.9 0c1.141 0.298 2.999 0.298 4.14 0 1.134-0.298 0.206-0.539-2.07-0.539s-3.204 0.241-2.07 0.539" fill="#959595" p-id="5960"></path><path d="M1499.67 269.98c0.014 2.6 0.255 3.523 0.539 2.055 0.283-1.467 0.27-3.594-0.021-4.728-0.298-1.128-0.532 0.078-0.518 2.672m-387.313 66.171c0 22.742 0.163 31.88 0.354 20.304 0.192-11.577 0.192-30.186 0-41.352-0.19-11.172-0.354-1.701-0.354 21.048m-52.22-18.68c1.135 0.29 3 0.29 4.134 0 1.134-0.298 0.205-0.546-2.07-0.546s-3.205 0.248-2.063 0.546m83.887 10.407c0.014 2.602 0.255 3.523 0.538 2.056 0.284-1.475 0.277-3.602-0.02-4.729-0.299-1.127-0.525 0.071-0.518 2.673M2479.33 568.91c0.007 9.095 0.191 12.661 0.418 7.926 0.22-4.743 0.22-12.187-0.007-16.547-0.227-4.353-0.411-0.475-0.411 8.62m-608.66 14.449c2.438 0.255 6.423 0.255 8.861 0s0.447-0.461-4.43-0.461c-4.87 0-6.87 0.205-4.431 0.46m406.447 0c2.438 0.256 6.43 0.256 8.861 0 2.439-0.255 0.447-0.46-4.43-0.46-4.87 0-6.863 0.205-4.431 0.46m-598.43 4.7c1.467 0.284 3.594 0.277 4.72-0.02 1.135-0.298-0.07-0.525-2.672-0.518-2.595 0.014-3.523 0.255-2.049 0.539m81.108 23.976c0 10.726 0.177 15.114 0.397 9.747a288.319 288.319 0 0 0 0-19.495c-0.22-5.36-0.397-0.971-0.397 9.748m375.73 5.912c0 11.371 0.177 16.022 0.396 10.336 0.213-5.685 0.213-14.994 0-20.68-0.22-5.685-0.397-1.027-0.397 10.344m343.906 98.654c0 46.144 0.142 65.185 0.326 42.33 0.177-22.863 0.177-60.613 0-83.887-0.184-23.281-0.326-4.58-0.326 41.557" fill="#ADADAD" p-id="5961"></path><path d="M1712.638 200.753c-22.643 3.077-33.632 18.602-33.66 47.54-0.014 15.937 0.588 15.192-12.378 15.192-9.989 0-9.79-0.276-9.124 12.208l0.433 8.075 9.414-0.362c12.555-0.475 11.655-4.636 11.612 53.332a19456.394 19456.394 0 0 0-0.007 51.695c0.029 1.078 3.205 1.475 11.854 1.475h11.817v-106.26l13.881-0.334 13.88-0.333 0.348-9.712 0.34-9.713-13.93-0.333-13.93-0.333V248.71c0-24.755 10.548-34.092 31.313-27.718 2.403 0.744 3.282-16.738 0.929-18.624-2.056-1.652-15.512-2.602-22.792-1.616m-261.274 4.735c-9.124 5.565-10.379 15.25-2.935 22.686 6.232 6.239 12.917 6.494 19.517 0.751 13.193-11.47-1.695-32.51-16.582-23.437m-409.247 5.523c-49.455 8.996-76.819 43.748-75.28 95.598 1.155 38.97 15.808 63.4 46.923 78.23 23.735 11.307 63.158 9.4 92.699-4.488l5.366-2.516v-82.49l-31.015 0.318-31.015 0.312-0.376 5.317a56.402 56.402 0 0 0 0.361 10.308l0.745 4.99 17.95 0.327 17.95 0.326 0.319 23.239 0.319 23.245-6.82 2.574c-19.127 7.223-43.266 5.579-59.72-4.07-42.188-24.72-37.36-103.467 7.6-124.033 21.161-9.684 54.814-7.954 74.82 3.85l3.884 2.29 0.553-11.4c0.759-15.852 1.858-14.731-19.771-20.19-5.85-1.482-39.792-2.772-45.492-1.737m264.96 19.127l-9.748 3.02v14.547c0 16.766 1.042 15.54-13.59 16.071l-8.266 0.298v18.907l9.45 0.191a542.539 542.539 0 0 1 10.932 0.29c1.148 0.086 1.474 8.926 1.481 39.984 0.007 45.159 0.929 51.56 8.614 59.798 7.365 7.897 28.314 11.37 41.302 6.84l4.43-1.545v-9.485c0-8.613-0.191-9.4-2.07-8.528-5.217 2.417-18.545 1.92-22.033-0.816-6.33-4.983-6.621-7.075-6.621-48.291v-37.85h30.724v-20.084h-30.724v-18.318c0-21.176 1.325-19.744-13.881-15.03m223.935 0.05l-9.124 3.063-0.326 14.823-0.334 14.817-10.336 0.34-10.336 0.348v19.991h21.268l-0.007 41.061c-0.007 50.156 2.091 57.926 17.567 64.944 5.409 2.446 25.869 2.772 32.355 0.51l4.43-1.545v-18.658l-3.026 1.148c-10.322 3.928-22.65 0.29-25.975-7.656-1.24-2.97-2.68-65.27-1.815-78.294 0.07-1.035 4.346-1.531 15.164-1.772l15.065-0.326 0.34-9.748 0.347-9.748h-30.817l-0.156-6.203a567.975 567.975 0 0 1 0.029-18.318c0.22-14.221 0.815-13.86-14.313-8.777m-341.354 31.966c-54.913 11.683-61.265 107.635-8.38 126.656 14.93 5.366 43.606 3.672 58.21-3.446l6.444-3.133 1.014-9.819c1.234-12.002 1.248-11.987-6.77-7.4-31.037 17.75-64.37 6.649-70.41-23.459-1.766-8.784-4.24-8.294 43.719-8.642l43.081-0.305 0.39-8.273c2.077-43.563-27.293-70.694-67.298-62.18m619.28 0.015c-9.535 2.027-22.324 13.193-23.792 20.764-1.403 7.231-3.388 2.51-3.388-8.053 0-13.137 1.098-12.13-12.697-11.627l-10.932 0.397v126.26h23.629l0.007-35.149c0.007-37.8 0.68-45.186 4.898-54.169 7.267-15.475 20.311-20.75 37.687-15.234 2.183 0.694 2.31 0.106 2.31-11.159 0-11.541-0.077-11.895-2.658-11.91a76.124 76.124 0 0 1-6.798-0.503 30.25 30.25 0 0 0-8.266 0.383m78.045 0.17c-39.033 8.188-59.195 57.224-40.224 97.824 20.147 43.117 91.103 42.876 112.307-0.383 13.335-27.215 8.047-66.518-11.357-84.411-12.86-11.846-39.302-17.525-60.726-13.03m165.938-0.191c-7.175 1.885-13.094 5.565-19.652 12.228-8.393 8.529-8.11 8.6-8.11-2.07V263.4l-11.52 0.334-11.52 0.34v125.245l11.52 0.333 11.52 0.34v-38.38c0-39.537 0.66-46.966 4.906-55.367 8.741-17.277 30.52-21.601 43.088-8.55 7.65 7.94 8.068 11.045 8.103 60.01l0.022 42.28 11.817-0.333 11.818-0.333 0.61-41.358c0.66-45.017 0.687-45.187 7.883-55.381 10.23-14.477 28.704-16.738 40.075-4.913 6.721 6.99 6.657 6.515 7.444 56.75l0.702 44.902 12.108 0.333 12.109 0.34v-42.286c0-61.152-3.19-73.339-21.856-83.434-7.373-3.99-31.767-3.757-40.175 0.383-5.686 2.8-15.625 11.79-19.666 17.801l-1.942 2.886-2.19-4.056c-8.642-15.964-28.478-24.025-47.094-19.14m-596.382 1.035l-10.336 0.397v126.33h23.628v-63.803c0-50.384-0.304-63.754-1.474-63.562-0.815 0.134-6.132 0.425-11.818 0.638m-237.021 21.02c7.493 5.266 11.768 12.894 12.527 22.344l0.623 7.742h-63.25l0.773-4.835c3.708-23.175 31.816-37.559 49.327-25.252m700.48-0.985c15.426 6.947 20.679 17.992 20.679 43.478 0 32.518-10.244 45.492-35.921 45.492-29.732 0-46.272-25.167-38.956-59.28 5.672-26.43 30.832-40.21 54.198-29.69m568.081 200.703c-38.161 7.607-57.302 33.49-58.493 79.087-0.73 27.89 1.283 25.359-20.134 25.38l-16.837 0.021v40.111l18.021 0.326 18.014 0.326 0.305 85.369 0.305 85.361h49.589l0.305-85.361 0.304-85.369 36.9-0.312 36.892-0.312 0.603 2.673c0.326 1.475 0.765 30.86 0.971 65.299 0.411 68.68-0.035 64.037 7.777 81.179 10.265 22.53 47.044 33.347 81.682 24.018 11.173-3.006 10.634-1.808 10.634-23.621 0-21.998 0.234-21.339-6.274-17.766-14.86 8.153-33.256 3.9-40.621-9.386l-3.318-5.983-0.362-58.168-0.354-58.167 25.167-0.319 25.174-0.319 0.319-19.764 0.326-19.765-25.139-0.32-25.131-0.318-0.32-31.016c-0.247-24.727-0.63-31.015-1.87-31.015-0.858 0-4.7 1.007-8.543 2.24-3.85 1.234-10.981 3.417-15.852 4.863-11.357 3.36-18.878 5.856-21.863 7.238-2.254 1.05-2.34 2.042-1.95 21.779 0.227 11.37 0.086 21.99-0.318 23.607l-0.738 2.928-36.892-0.312-36.9-0.312-0.347-17.135c-0.787-38.657 17.475-56.21 47.611-45.768 3.247 1.12 6.345 2.049 6.884 2.049 1.042 0 1.397-39.962 0.354-40.997-3.509-3.516-32.1-4.793-45.881-2.049m-1124.862 14.61c-32.505 10.543-25.16 55.914 9.052 55.907 31.661-0.008 41.5-39.665 13.449-54.17-4.162-2.154-17.943-3.218-22.501-1.736m-385.3 5.593c-0.433 0.433-0.787 67.164-0.787 148.286v147.491h47.3l-0.05-114.767c-0.029-63.13 0.149-114.98 0.404-115.229 1.283-1.29 5.827 9.266 30.86 71.672a2242.196 2242.196 0 0 0 8.96 22.154c0.63 1.46 1.623 3.857 2.205 5.317 0.588 1.46 2.183 5.175 3.544 8.26 1.369 3.076 2.482 5.926 2.482 6.323 0 0.616 9.648 24.294 12.952 31.795 0.574 1.297 4.324 10.598 8.337 20.672a1272.077 1272.077 0 0 0 8.861 21.863c0.858 1.95 2.467 5.934 3.58 8.862 1.113 2.92 3.282 8.074 4.828 11.442 1.538 3.374 2.8 6.628 2.8 7.238 0 0.61 1.319 4.098 2.935 7.756l2.942 6.642h17.184c15.32 0 17.256-0.22 17.851-2.063 0.943-2.92 18.134-47.413 19.978-51.694 0.836-1.95 5.316-13.116 9.946-24.813a2202.766 2202.766 0 0 1 9.443-23.628c0.56-1.305 2.743-6.884 4.849-12.406 2.105-5.523 4.48-11.64 5.274-13.59 0.801-1.95 3.97-9.925 7.04-17.723 3.076-7.799 6.033-15.242 6.586-16.54a2808.611 2808.611 0 0 0 18.276-46.08c4.615-12.463 8.606-21.267 9.627-21.267 0.546 0 1.127 51.701 1.29 114.902l0.305 114.902h50.794V653.485c0-80.526-0.326-147.25-0.716-148.278-0.957-2.495-67.95-2.871-69.822-0.397-0.616 0.815-9.762 22.75-20.317 48.738-10.563 25.997-19.914 48.86-20.772 50.809-0.865 1.95-7.514 18.17-14.774 36.034a3242.997 3242.997 0 0 1-15.284 37.219c-1.142 2.602-5.757 13.888-10.251 25.089-9.046 22.55-9.861 23.38-13.427 13.611a254.674 254.674 0 0 0-3.495-9.16c-0.56-1.297-2.928-7.287-5.26-13.306a10395.549 10395.549 0 0 1-24.387-62.902 3866.892 3866.892 0 0 0-13.534-34.858c-0.815-1.95-3.211-8.06-5.33-13.583-2.12-5.53-5.708-14.83-7.976-20.68l-8.011-20.679c-9.833-25.429-12.697-32.674-13.888-35.148l-1.283-2.659h-35.638c-19.601 0-35.992 0.355-36.431 0.787m553.945 79.57c-64.597 5.636-103.758 56.317-98.576 127.592 2.737 37.707 23.714 68.765 56.955 84.333 26.202 12.279 73.998 11.946 100.994-0.702l7.387-3.452v-22.367c0-24.174-0.022-24.252-6.282-19.516-32.993 24.982-85.403 15.802-101.163-17.716-6.77-14.398-9.187-38.778-5.544-55.863 10.266-48.186 63.832-67.022 107.26-37.722 5.665 3.821 5.729 3.594 5.729-20.736v-22.849l-3.247-1.51c-17.567-8.16-40.111-11.527-63.513-9.492m541.738-0.029c-67.858 6.445-93.28 81.463-39.147 115.527 10.13 6.373 10.592 6.607 26.152 13.327 27.811 12.017 35.673 19.127 35.865 32.462 0.361 25.11-45.144 28.371-82.299 5.898-3.771-2.283-7.096-4.147-7.387-4.147-1.397 0-0.468 47.023 0.943 48.107 1.418 1.092 13.009 4.396 26.882 7.664 17.922 4.232 58.174 1.319 72.076-5.218 27.422-12.88 39.608-31.058 39.445-58.82-0.177-31.525-14.561-46.873-61.946-66.113-22.827-9.266-30.625-18.638-27.846-33.461 3.65-19.453 40.472-21.793 72.239-4.587l6.465 3.502V591.83l-4.282-1.786c-11.973-5.005-39.409-8.068-57.16-6.38m-225.083 1.736c-51.837 10.507-81.441 45.939-84.936 101.667-3.091 49.185 16.029 87.836 52.552 106.268 34.702 17.496 90.757 14.49 121-6.501 59.294-41.153 58.925-149.236-0.639-187.73-20.785-13.441-59.528-19.474-87.977-13.704m405.78 0.107c-46.973 9.372-75.734 40.855-83.284 91.174-6.969 46.406 9.74 90.423 42.337 111.52 35.418 22.928 95.45 22.254 130.406-1.46 59.103-40.103 58.657-149.915-0.765-187.892-20.73-13.243-59.77-19.12-88.694-13.342m-527.651 0.503c-12.605 2.694-29.08 15.646-35.475 27.896-4.728 9.053-5.118 8.33-5.118-9.55v-15.95h-49.625V799.9h49.448l0.517-63.505c0.56-68.106 0.723-70.063 6.92-82.519 10.194-20.48 33.588-29.633 55.366-21.657 3.573 1.311 7.43 2.68 8.564 3.055 2.517 0.815 3.268-47.172 0.759-48.717-2.078-1.283-25.954-1.694-31.356-0.546m-379.692 108.146V799.9h49.624V588.406h-49.624v105.75m548.6-65.504c12.661 5.31 24.784 18.035 28.06 29.463 0.843 2.927 1.927 5.862 2.424 6.522 4.615 6.231 4.126 46.441-0.759 61.796-16.837 52.9-90.451 51.135-107.125-2.573-5.835-18.793-3.353-53.063 5.076-70.268 11.839-24.146 46.058-35.95 72.324-24.94m402.64-1.156c25.443 8.266 37.708 29.945 37.708 66.646 0 46.711-18.525 69.701-56.126 69.68-43.577-0.028-66.851-36.58-56.778-89.197 7.366-38.515 39.58-58.698 75.196-47.129" fill="#FDFDFD" p-id="5962"></path><path d="M0 511.609v511.6h2835.692V0H0v511.609m2820.925 0v496.834H14.767l-0.298-495.658c-0.17-272.609-0.05-496.317 0.255-497.132 0.447-1.177 281.74-1.418 1403.377-1.177l1402.824 0.29V511.61m-1713.41-276.48c0 5.522 0.206 7.783 0.454 5.019a67.88 67.88 0 0 0 0-10.046c-0.248-2.757-0.454-0.503-0.454 5.027m189.091 12.406c0 8.443 0.192 11.747 0.418 7.33 0.227-4.41 0.227-11.322 0-15.355-0.234-4.034-0.418-0.426-0.418 8.025m381.557 1.772c0 4.218 0.212 5.948 0.475 3.835a37.552 37.552 0 0 0 0-7.677c-0.263-2.113-0.475-0.383-0.475 3.842m-476.836 11.463c1.467 0.284 3.856 0.284 5.317 0 1.467-0.276 0.27-0.51-2.659-0.51-2.92 0-4.119 0.234-2.658 0.51m701.26 0.014c1.8 0.277 4.459 0.27 5.912-0.014 1.453-0.283-0.021-0.503-3.268-0.496-3.247 0.014-4.438 0.241-2.645 0.51m160.678-0.028c1.134 0.29 2.999 0.29 4.133 0 1.134-0.298 0.206-0.546-2.07-0.546s-3.204 0.248-2.063 0.546m78.57 0.014c1.46 0.284 3.856 0.284 5.317 0 1.46-0.276 0.262-0.51-2.659-0.51-2.928 0-4.119 0.234-2.658 0.51m-565.671 12.995c-0.32 5.338-0.156 9.273 0.361 8.748 0.518-0.518 0.78-4.885 0.582-9.691l-0.362-8.748-0.581 9.69m155.063 3.9c0 2.268 0.248 3.204 0.545 2.063 0.291-1.134 0.291-2.999 0-4.133-0.297-1.134-0.545-0.206-0.545 2.07m-434.549 44.308c0 21.445 0.156 30.384 0.354 19.864a1276.487 1276.487 0 0 0 0-38.991c-0.19-10.925-0.354-2.318-0.354 19.127m381.649 14.766c0 26.968 0.156 37.999 0.34 24.515 0.191-13.484 0.191-35.545 0-49.03-0.184-13.483-0.34-2.452-0.34 24.515m-712.603-33.673c0 5.196 0.213 7.181 0.461 4.402a59.245 59.245 0 0 0-0.007-9.457c-0.255-2.417-0.46-0.142-0.454 5.055m86.744 14.426c1.475 0.277 3.602 0.27 4.729-0.028 1.127-0.298-0.071-0.525-2.673-0.51-2.602 0.014-3.523 0.255-2.056 0.538m16.554 0.014c2.12 0.27 5.31 0.263 7.089-0.007 1.772-0.27 0.035-0.489-3.864-0.482-3.899 0.007-5.352 0.227-3.225 0.49m1012.186 32.823c0 17.545 0.163 24.883 0.361 16.312 0.206-8.571 0.206-22.927 0.007-31.902-0.205-8.975-0.368-1.956-0.368 15.59m-114.853-24.224c0 2.275 0.241 3.204 0.539 2.07a9.712 9.712 0 0 0 0-4.14c-0.298-1.135-0.539-0.206-0.539 2.07m-389.78 52.58c0.007 5.197 0.213 7.175 0.468 4.396a59.124 59.124 0 0 0-0.014-9.45c-0.248-2.418-0.454-0.15-0.454 5.054m-329.756-3.544c0.015 2.594 0.256 3.523 0.54 2.049 0.283-1.468 0.276-3.595-0.022-4.722-0.298-1.134-0.525 0.071-0.518 2.673M2509.9 523.086c1.793 0.276 4.452 0.27 5.905-0.014 1.453-0.284-0.014-0.504-3.261-0.496-3.254 0.014-4.438 0.24-2.644 0.51m43.854 45.825c0.007 7.798 0.198 10.832 0.425 6.749 0.234-4.09 0.234-10.471 0-14.179-0.234-3.715-0.425-0.368-0.425 7.43m-1017.461 14.405c1.141 0.29 2.999 0.29 4.14 0 1.134-0.298 0.206-0.546-2.07-0.546s-3.204 0.248-2.07 0.546m598.608 11.258c0.545 3.282 0.709 3.445 1.084 1.077 0.241-1.53-0.05-3.275-0.645-3.87-0.66-0.66-0.83 0.446-0.44 2.793m-434.669 6.238c-2.87 2.921-4.948 5.317-4.622 5.317 0.32 0 2.935-2.396 5.806-5.317 2.872-2.928 4.956-5.317 4.63-5.317-0.326 0-2.942 2.39-5.814 5.317m-155.098 23.891c2.092 0.262 5.813 0.27 8.266 0.014s0.738-0.475-3.814-0.475c-4.544-0.007-6.55 0.199-4.452 0.461m213.89 9.195c-0.312 1.623-0.107 2.949 0.453 2.949s1.014-1.326 1.014-2.95c0-1.623-0.199-2.955-0.454-2.955-0.248 0-0.702 1.332-1.014 2.956m794.824 49.029c0 28.917 0.156 40.749 0.347 26.294 0.184-14.462 0.184-38.119 0-52.581-0.191-14.462-0.347-2.63-0.347 26.287m-548.36-34.262c0 5.522 0.2 7.784 0.447 5.019a67.78 67.78 0 0 0 0-10.039c-0.248-2.764-0.446-0.503-0.446 5.02m0.113 98.398c-0.319 0.83-0.44 11.86-0.255 24.515l0.319 23.004 0.588-24.514c0.582-24.033 0.518-26.067-0.652-23.005m-469.286 58.415c1.794 0.27 4.452 0.263 5.906-0.02 1.453-0.277-0.015-0.504-3.269-0.49-3.246 0.007-4.437 0.234-2.637 0.51m332.599-0.014c1.467 0.284 3.594 0.27 4.728-0.021 1.127-0.298-0.078-0.532-2.672-0.518-2.602 0.015-3.524 0.256-2.056 0.54m190.82 0.013c1.794 0.27 4.453 0.263 5.906-0.02 1.453-0.277-0.014-0.504-3.261-0.49-3.254 0.007-4.438 0.234-2.645 0.51m215.627-0.014c1.474 0.284 3.6 0.27 4.728-0.021 1.127-0.298-0.07-0.532-2.673-0.518-2.601 0.015-3.523 0.256-2.055 0.54m339.68-0.022c1.134 0.298 2.999 0.298 4.133 0 1.141-0.298 0.213-0.539-2.063-0.539-2.276 0-3.204 0.241-2.07 0.539" fill="#D1D1D1" p-id="5963"></path></svg>