<?xml version="1.0" standalone="no"?><!DOCTYPE svg PUBLIC "-//W3C//DTD SVG 1.1//EN" "http://www.w3.org/Graphics/SVG/1.1/DTD/svg11.dtd"><svg t="1760236992878" class="icon" viewBox="0 0 1024 1024" version="1.1" xmlns="http://www.w3.org/2000/svg" p-id="6299" xmlns:xlink="http://www.w3.org/1999/xlink" width="200" height="200"><path d="M307.68 374.11c22.32 21.55 34.71 46.04 37.17 73.46h-42.67c-4.75-20.82-14.22-37.31-28.4-49.48-14.19-12.17-34.09-18.25-59.72-18.25-31.25 0-56.48 11.19-75.7 33.57-19.22 22.38-28.83 56.68-28.83 102.9 0 37.86 8.68 68.57 26.03 92.12 17.35 23.55 43.24 35.33 77.67 35.33 31.69 0 55.81-12.39 72.38-37.17 8.78-13.05 15.34-30.2 19.66-51.46h42.67c-3.77 34.02-16.23 62.53-37.39 85.55-25.36 27.71-59.57 41.57-102.61 41.57-37.1 0-68.26-11.37-93.48-34.11-33.19-30.08-49.78-76.51-49.78-139.31 0-47.68 12.46-86.78 37.39-117.3 26.95-33.15 64.12-49.73 111.51-49.73 40.41-0.02 71.79 10.75 94.1 32.31zM498.36 350.57h49.48l117.22 323.07h-47.94l-32.77-96.77H456.57l-34.97 96.77h-44.86l121.62-323.07z m71.92 190.68l-49.04-142.73-52.12 142.73h101.16zM704.88 350.57h51.56L917.55 611.6V350.57h41.79v323.07h-49.17l-163.5-260.72v260.72h-41.79V350.57z" p-id="6300"></path></svg>