<?xml version="1.0" standalone="no"?><!DOCTYPE svg PUBLIC "-//W3C//DTD SVG 1.1//EN" "http://www.w3.org/Graphics/SVG/1.1/DTD/svg11.dtd"><svg t="1760236509191" class="icon" viewBox="0 0 1024 1024" version="1.1" xmlns="http://www.w3.org/2000/svg" p-id="2605" xmlns:xlink="http://www.w3.org/1999/xlink" width="200" height="200"><path d="M664.064 40.96l100.124444 100.124444L955.733333 332.629333v577.820445a96.256 96.256 0 0 1-96.312889 96.256H185.571556A96.256 96.256 0 0 1 89.315556 910.449778V137.216A96.256 96.256 0 0 1 185.571556 40.96h478.435555z m-279.893333 738.076444a51.541333 51.541333 0 0 0-26.055111 6.371556 42.382222 42.382222 0 0 0-17.066667 18.318222c-3.697778 7.736889-5.688889 16.156444-5.916445 24.746667v7.736889a51.143111 51.143111 0 0 0 14.449778 35.271111 47.559111 47.559111 0 0 0 34.872889 13.027555h-0.113778a46.990222 46.990222 0 0 0 35.783111-13.937777 52.906667 52.906667 0 0 0 13.141334-37.774223v-1.137777a54.215111 54.215111 0 0 0-13.084445-38.513778 46.762667 46.762667 0 0 0-36.010666-14.108445z m427.861333-0.113777a47.616 47.616 0 0 0-30.321778 9.102222 28.103111 28.103111 0 0 0-7.452444 37.034667c3.015111 4.380444 7.054222 7.964444 11.719111 10.410666 6.144 3.242667 12.743111 5.575111 19.569778 6.940445 5.518222 0.910222 10.922667 2.503111 16.042666 4.835555a7.395556 7.395556 0 0 1 4.266667 6.485334c0 2.673778-1.137778 5.176889-3.299556 6.826666a15.018667 15.018667 0 0 1-9.614222 2.673778 19.228444 19.228444 0 0 1-11.548444-3.242667 12.344889 12.344889 0 0 1-4.835556-10.296889h-29.582222a28.899556 28.899556 0 0 0 5.802667 17.009778 39.367111 39.367111 0 0 0 15.928889 12.8c7.281778 3.356444 15.246222 5.063111 23.324444 5.006222a54.044444 54.044444 0 0 0 32.028444-8.760888 26.624 26.624 0 0 0 12.344889-22.584889 28.899556 28.899556 0 0 0-22.926222-28.387556 114.119111 114.119111 0 0 0-15.928889-3.982222 39.082667 39.082667 0 0 1-13.198222-4.380445 7.736889 7.736889 0 0 1-4.152889-6.826666 8.533333 8.533333 0 0 1 3.413333-6.883556 12.743111 12.743111 0 0 1 8.305778-2.844444c8.533333 0 12.856889 4.152889 12.856889 12.288h31.800889a28.444444 28.444444 0 0 0-12.174222-24.064 52.906667 52.906667 0 0 0-32.369778-9.159111z m-224.483556-40.675556H555.804444v144.384h28.444445l1.308444-10.410667c5.802667 7.964444 15.189333 12.515556 25.031111 12.288a34.702222 34.702222 0 0 0 29.127112-13.425777c7.566222-11.377778 11.207111-24.917333 10.24-38.513778v-1.706667a62.236444 62.236444 0 0 0-10.24-38.456889 34.702222 34.702222 0 0 0-29.354667-13.653333 28.899556 28.899556 0 0 0-22.812445 10.069333v-50.574222z m-50.005333 0h-31.744v51.484445a29.240889 29.240889 0 0 0-21.390222-10.695112h-1.536a34.360889 34.360889 0 0 0-29.184 13.937778 62.122667 62.122667 0 0 0-10.410667 38.058667c-0.853333 13.994667 2.844444 27.875556 10.638222 39.594667 6.428444 8.647111 16.497778 13.824 27.249778 13.937777h1.536a29.980444 29.980444 0 0 0 24.746667-12.856889l1.706667 10.922667h28.444444v-144.384z m157.582222 42.666667h-31.630222v65.934222a41.073778 41.073778 0 0 0 8.533333 27.875556c6.656 6.826667 15.928889 10.353778 25.372445 9.671111v0.113777a32.711111 32.711111 0 0 0 27.192889-12.856888l0.910222 10.979555h29.752889v-101.717333h-31.857778v71.111111a16.554667 16.554667 0 0 1-15.530667 7.793778 11.377778 11.377778 0 0 1-12.686222-13.084445v-65.820444z m-479.914666-35.157334H171.804444v136.874667h32.995556v-31.914667L201.671111 785.066667l33.223111 97.507555h21.788445l33.052444-97.393778-3.072 65.422223v31.971555h33.052445V745.813333H276.48l-30.72 95.232-30.492444-95.232z m387.128889 57.742223a13.255111 13.255111 0 0 1 12.060444 6.257777 42.154667 42.154667 0 0 1 3.811556 20.935112c0.284444 6.257778-0.227556 12.458667-1.479112 18.545777a13.482667 13.482667 0 0 1-13.425777 10.979556h-1.934223a15.189333 15.189333 0 0 1-13.824-8.135111v-40.391111a15.189333 15.189333 0 0 1 14.791112-8.192z m-218.282667 0c11.662222 0 17.464889 9.102222 17.464889 27.306666v3.242667c-0.284444 17.294222-6.030222 25.998222-17.351111 25.998222h0.170666a14.734222 14.734222 0 0 1-13.084444-6.542222 38.513778 38.513778 0 0 1-4.380445-20.707556v-5.688888c0.853333-15.758222 6.599111-23.608889 17.180445-23.608889z m121.628444 9.045333v38.513778a15.473778 15.473778 0 0 1-15.018666 8.817778l0.113777 0.227555c-10.524444 0-15.815111-9.102222-15.815111-27.136v-5.745778c0.796444-15.303111 5.745778-23.210667 14.848-23.722666h1.024a15.189333 15.189333 0 0 1 14.848 9.045333zM663.950222 141.084444H186.481778v522.638223H859.022222v-331.093334h-146.887111a48.128 48.128 0 0 1-48.128-48.128V141.084444zM490.666667 247.466667l173.283555 173.283555-173.283555 173.283556V464.042667H336.099556V377.400889h154.567111V247.466667z" fill="#579CF9" p-id="2606"></path></svg>