<?xml version="1.0" standalone="no"?><!DOCTYPE svg PUBLIC "-//W3C//DTD SVG 1.1//EN" "http://www.w3.org/Graphics/SVG/1.1/DTD/svg11.dtd"><svg t="1760237075354" class="icon" viewBox="0 0 1024 1024" version="1.1" xmlns="http://www.w3.org/2000/svg" p-id="6463" xmlns:xlink="http://www.w3.org/1999/xlink" width="200" height="200"><path d="M512 1024C229.239467 1024 0 794.760533 0 512 0 229.239467 229.239467 0 512 0c282.760533 0 512 229.239467 512 512 0 282.760533-229.239467 512-512 512zM241.527467 375.466667c-45.2608 0-80.657067 15.223467-105.3696 46.523733-22.6304 27.989333-33.757867 63.829333-33.757867 107.451733s10.717867 79.018667 32.938667 106.1888c24.2688 30.037333 59.2896 45.294933 104.96 45.294934 31.300267 0 58.4704-9.079467 81.1008-26.760534 24.302933-18.944 39.5264-45.704533 46.08-79.872h-32.494934c-5.768533 25.531733-17.7152 44.885333-34.986666 58.026667-16.452267 12.356267-36.215467 18.5344-59.6992 18.5344-34.577067 0-60.5184-11.502933-78.609067-34.133333-17.3056-21.435733-25.531733-50.653867-25.531733-87.278934 0-36.6592 8.635733-65.877333 25.941333-88.098133 18.500267-23.893333 44.8512-35.84 79.018667-35.84 23.074133 0 42.427733 5.358933 58.4704 16.4864 16.452267 11.537067 27.170133 27.989333 31.266133 49.390933h32.529067c-4.096-29.218133-17.271467-52.701867-39.5264-69.973333-22.186667-17.3056-49.800533-25.941333-82.3296-25.941333z m258.935466 5.768533l-115.677866 293.888h36.2496l31.266133-82.295467h135.031467l31.300266 82.3296h36.625067l-115.677867-293.922133h-39.1168z m-37.444266 183.1936l56.388266-146.978133h1.6384l55.569067 146.978133h-113.595733z m221.866666-183.1936v293.888h33.792v-241.595733h1.194667l167.150933 241.629866H921.6v-293.922133h-33.757867v239.172267h-1.2288l-166.2976-239.172267h-35.4304z" fill="#68C469" p-id="6464"></path></svg>